<svg xmlns="http://www.w3.org/2000/svg" xmlns:xlink="http://www.w3.org/1999/xlink" xmlns:lucid="lucid" width="3580" height="2640.33"><g transform="translate(696 671.6666666666665)" lucid:page-tab-id="0_0"><path d="M-1000-1000h4000v3000h-4000z" fill="#fafafa"/><path d="M1119 531c0 44.18-35.82 80-80 80s-80-35.82-80-80 35.82-80 80-80 80 35.82 80 80z" stroke="#5e5e5e" stroke-width="3" fill="#fff"/><use xlink:href="#a" transform="matrix(1,0,0,1,971,463) translate(11.888888888888886 47.52777777777778)"/><use xlink:href="#b" transform="matrix(1,0,0,1,971,463) translate(47.660493827160494 74.19444444444446)"/><use xlink:href="#c" transform="matrix(1,0,0,1,971,463) translate(15.006172839506164 100.86111111111111)"/><path d="M1958.67 435c0 86.16-93.13 156-208 156-114.88 0-208-69.84-208-156s93.12-156 208-156c114.87 0 208 69.84 208 156z" stroke="#5e5e5e" stroke-width="3" fill="#fff"/><use xlink:href="#d" transform="matrix(1,0,0,1,1554.6666666666667,290.99999999999994) translate(3.4691358024691397 134.77777777777777)"/><use xlink:href="#e" transform="matrix(1,0,0,1,1554.6666666666667,290.99999999999994) translate(99.76543209876543 134.77777777777777)"/><use xlink:href="#f" transform="matrix(1,0,0,1,1554.6666666666667,290.99999999999994) translate(112.11111111111111 134.77777777777777)"/><use xlink:href="#g" transform="matrix(1,0,0,1,1554.6666666666667,290.99999999999994) translate(209.58024691358025 134.77777777777777)"/><use xlink:href="#h" transform="matrix(1,0,0,1,1554.6666666666667,290.99999999999994) translate(251.55555555555557 134.77777777777777)"/><use xlink:href="#i" transform="matrix(1,0,0,1,1554.6666666666667,290.99999999999994) translate(298.4074074074074 134.77777777777777)"/><use xlink:href="#j" transform="matrix(1,0,0,1,1554.6666666666667,290.99999999999994) translate(130.04320987654322 161.44444444444443)"/><use xlink:href="#k" transform="matrix(1,0,0,1,1554.6666666666667,290.99999999999994) translate(162.08024691358025 161.44444444444443)"/><use xlink:href="#l" transform="matrix(1,0,0,1,1554.6666666666667,290.99999999999994) translate(218.80864197530866 161.44444444444443)"/><path d="M1937.33 1129.33c0 101.62-81.03 184-181 184-99.96 0-181-82.38-181-184s81.04-184 181-184c99.97 0 181 82.38 181 184z" stroke="#5e5e5e" stroke-width="3" fill="#fff"/><use xlink:href="#m" transform="matrix(1,0,0,1,1587.3333333333333,957.3333333333333) translate(17.240740740740733 152.15277777777777)"/><use xlink:href="#e" transform="matrix(1,0,0,1,1587.3333333333333,957.3333333333333) translate(78.90740740740739 152.15277777777777)"/><use xlink:href="#n" transform="matrix(1,0,0,1,1587.3333333333333,957.3333333333333) translate(91.25308641975307 152.15277777777777)"/><use xlink:href="#o" transform="matrix(1,0,0,1,1587.3333333333333,957.3333333333333) translate(115.94444444444443 152.15277777777777)"/><use xlink:href="#p" transform="matrix(1,0,0,1,1587.3333333333333,957.3333333333333) translate(159.1543209876543 152.15277777777777)"/><use xlink:href="#q" transform="matrix(1,0,0,1,1587.3333333333333,957.3333333333333) translate(177.67283950617283 152.15277777777777)"/><use xlink:href="#r" transform="matrix(1,0,0,1,1587.3333333333333,957.3333333333333) translate(267.7345679012345 152.15277777777777)"/><use xlink:href="#s" transform="matrix(1,0,0,1,1587.3333333333333,957.3333333333333) translate(284.9567901234568 152.15277777777777)"/><use xlink:href="#t" transform="matrix(1,0,0,1,1587.3333333333333,957.3333333333333) translate(22.827160493827137 178.81944444444443)"/><use xlink:href="#u" transform="matrix(1,0,0,1,1587.3333333333333,957.3333333333333) translate(77.14814814814812 178.81944444444443)"/><use xlink:href="#v" transform="matrix(1,0,0,1,1587.3333333333333,957.3333333333333) translate(120.358024691358 178.81944444444443)"/><use xlink:href="#j" transform="matrix(1,0,0,1,1587.3333333333333,957.3333333333333) translate(174.55555555555554 178.81944444444443)"/><use xlink:href="#w" transform="matrix(1,0,0,1,1587.3333333333333,957.3333333333333) translate(206.59259259259258 178.81944444444443)"/><use xlink:href="#r" transform="matrix(1,0,0,1,1587.3333333333333,957.3333333333333) translate(262.14814814814815 178.81944444444443)"/><use xlink:href="#s" transform="matrix(1,0,0,1,1587.3333333333333,957.3333333333333) translate(279.3703703703704 178.81944444444443)"/><use xlink:href="#x" transform="matrix(1,0,0,1,1587.3333333333333,957.3333333333333) translate(145.57407407407408 205.4861111111111)"/><path d="M1139 26.67c0 66.27-89.1 120-199 120s-199-53.73-199-120c0-66.28 89.1-120 199-120s199 53.72 199 120z" stroke="#5e5e5e" stroke-width="3" fill="#fff"/><use xlink:href="#y" transform="matrix(1,0,0,1,753,-81.33333333333329) translate(20.549382716049365 98.77777777777777)"/><use xlink:href="#z" transform="matrix(1,0,0,1,753,-81.33333333333329) translate(153.6358024691358 98.77777777777777)"/><use xlink:href="#A" transform="matrix(1,0,0,1,753,-81.33333333333329) translate(190.67283950617283 98.77777777777777)"/><use xlink:href="#j" transform="matrix(1,0,0,1,753,-81.33333333333329) translate(273.2654320987654 98.77777777777777)"/><use xlink:href="#B" transform="matrix(1,0,0,1,753,-81.33333333333329) translate(305.3024691358025 98.77777777777777)"/><use xlink:href="#C" transform="matrix(1,0,0,1,753,-81.33333333333329) translate(11.90740740740739 125.44444444444446)"/><use xlink:href="#u" transform="matrix(1,0,0,1,753,-81.33333333333329) translate(61.22839506172838 125.44444444444446)"/><use xlink:href="#D" transform="matrix(1,0,0,1,753,-81.33333333333329) translate(104.43827160493825 125.44444444444446)"/><use xlink:href="#E" transform="matrix(1,0,0,1,753,-81.33333333333329) translate(162.4012345679012 125.44444444444446)"/><use xlink:href="#A" transform="matrix(1,0,0,1,753,-81.33333333333329) translate(196.9074074074074 125.44444444444446)"/><use xlink:href="#j" transform="matrix(1,0,0,1,753,-81.33333333333329) translate(279.5 125.44444444444446)"/><use xlink:href="#F" transform="matrix(1,0,0,1,753,-81.33333333333329) translate(311.53703703703707 125.44444444444446)"/><path d="M528.67 612c0 83.4-78.35 151-175 151s-175-67.6-175-151 78.35-151 175-151 175 67.6 175 151z" stroke="#5e5e5e" stroke-width="3" fill="#fff"/><use xlink:href="#G" transform="matrix(1,0,0,1,190.66666666666674,472.99999999999994) translate(10.62345679012347 117.68402777777777)"/><use xlink:href="#n" transform="matrix(1,0,0,1,190.66666666666674,472.99999999999994) translate(111.7962962962963 117.68402777777777)"/><use xlink:href="#H" transform="matrix(1,0,0,1,190.66666666666674,472.99999999999994) translate(136.48765432098764 117.68402777777777)"/><use xlink:href="#I" transform="matrix(1,0,0,1,190.66666666666674,472.99999999999994) translate(178.46296296296296 117.68402777777777)"/><use xlink:href="#k" transform="matrix(1,0,0,1,190.66666666666674,472.99999999999994) translate(215.5 117.68402777777777)"/><use xlink:href="#J" transform="matrix(1,0,0,1,190.66666666666674,472.99999999999994) translate(272.2283950617284 117.68402777777777)"/><use xlink:href="#K" transform="matrix(1,0,0,1,190.66666666666674,472.99999999999994) translate(24.203703703703695 144.35069444444446)"/><use xlink:href="#u" transform="matrix(1,0,0,1,190.66666666666674,472.99999999999994) translate(119.2037037037037 144.35069444444446)"/><use xlink:href="#L" transform="matrix(1,0,0,1,190.66666666666674,472.99999999999994) translate(162.41358024691357 144.35069444444446)"/><use xlink:href="#M" transform="matrix(1,0,0,1,190.66666666666674,472.99999999999994) translate(221.6111111111111 144.35069444444446)"/><use xlink:href="#N" transform="matrix(1,0,0,1,190.66666666666674,472.99999999999994) translate(269.75925925925924 144.35069444444446)"/><use xlink:href="#O" transform="matrix(1,0,0,1,190.66666666666674,472.99999999999994) translate(121.7037037037037 171.01736111111111)"/><path d="M901 1188.67c0 110.45-87.3 200-195 200s-195-89.55-195-200c0-110.46 87.3-200 195-200s195 89.54 195 200z" stroke="#5e5e5e" stroke-width="3" fill="#fff"/><use xlink:href="#P" transform="matrix(1,0,0,1,523,1000.6666666666667) translate(7.290123456790127 176.40277777777777)"/><use xlink:href="#n" transform="matrix(1,0,0,1,523,1000.6666666666667) translate(152.78395061728395 176.40277777777777)"/><use xlink:href="#Q" transform="matrix(1,0,0,1,523,1000.6666666666667) translate(177.47530864197532 176.40277777777777)"/><use xlink:href="#R" transform="matrix(1,0,0,1,523,1000.6666666666667) translate(256.4259259259259 176.40277777777777)"/><use xlink:href="#S" transform="matrix(1,0,0,1,523,1000.6666666666667) translate(183 203.06944444444443)"/><path d="M1029.33 606.75l-12.56 14.16-14.8 15.35L985 652.43l-20.38 17.82-26.87 21.6L805.4 790.1l-14.8 12.96-11.6 11.06-9.6 9.95-8.2 9.22-7.12 8.72-6.28 8.4-5.6 8.2-5.03 8.06-4.55 8-4.1 8.02-3.74 8.08-3.38 8.2-3.04 8.4-2.73 8.62-2.42 8.93-2.1 9.3-1.78 9.75-1.44 10.3-1.06 10.92-.2 3.48M1029.32 606.77l.68-.77" stroke="#5e5e5e" stroke-width="2" fill="none"/><path d="M706.1 983.93l-4.14-14.4 9.27.3z" stroke="#5e5e5e" stroke-width="2" fill="#5e5e5e"/><path d="M1121.5 531.02l4.32.1 5.17.32 5.04.53 4.95.73 4.87.93 4.82 1.13 4.77 1.34 4.77 1.54 4.77 1.78 4.8 2 4.82 2.28 4.88 2.56 4.97 2.86 5.07 3.22 5.2 3.62 5.35 4.07 5.54 4.6 5.78 5.2 6.06 5.94 6.4 6.8 6.8 7.9 7.28 9.2 7.92 10.9 8.7 13.14 9.78 16.17 11.28 20.56 13.67 27.6 18.47 41.68 97.26 242.6 13.67 27.6 11.27 20.57 9.78 16.16 8.7 13.13 7.92 10.9 7.3 9.2 6.8 7.9 6.38 6.8 6.06 5.94 5.8 5.2 5.54 4.6 5.36 4.08 5.2 3.6 5.07 3.23 4.96 2.88 4.88 2.55 4.84 2.27 4.8 2.02 4.75 1.77 4.76 1.54 4.78 1.33 4.82 1.13 4.88.93 2.06.3" stroke="#5e5e5e" stroke-width="2" fill="none"/><path d="M1121.55 530.02l-.04 2-1.03-.02.03-.98V530z" fill="#5e5e5e"/><path d="M1570.6 1129.1l-14.57 3.54.7-9.25z" stroke="#5e5e5e" stroke-width="2" fill="#5e5e5e"/><path d="M1121.5 530.98l25.58-.52 22.7-1.42 19.9-2.08 17.9-2.64 16.44-3.13 15.56-3.66 15.22-4.25 15.6-5.08 17.42-6.5L1313.2 491l60.65-26.7 17.4-6.5 15.62-5.07 15.22-4.24 15.55-3.65 16.45-3.12 17.87-2.64 19.9-2.08 22.72-1.42 8.07-.16" stroke="#5e5e5e" stroke-width="2" fill="none"/><path d="M1121.55 531.98l-1.08.02.03-.98V530l1-.02z" fill="#5e5e5e"/><path d="M1537.93 435.07l-14.17 4.92-.2-9.28z" stroke="#5e5e5e" stroke-width="2" fill="#5e5e5e"/><path d="M1038.98 448.5l-.26-12.56-.76-12.12-1.15-10.98-1.47-10.08-1.8-9.37-2.06-8.86-2.36-8.45-2.66-8.22-3.02-8.12-3.46-8.22-4.04-8.58-4.94-9.43-6.7-11.58-36.26-57.8-4.94-9.45-4.04-8.58-3.46-8.2-3.02-8.13-2.67-8.22-2.37-8.46-2.07-8.84-1.8-9.38-1.47-10.08-1.16-10.97-.45-7.2" stroke="#5e5e5e" stroke-width="2" fill="none"/><path d="M1040 449.53l-.98-.03H1038l-.02-1 2-.05z" fill="#5e5e5e"/><path d="M940.1 151.4l5.1 14.1-9.28.3z" stroke="#5e5e5e" stroke-width="2" fill="#5e5e5e"/><path d="M956.5 531.02l-30.97.63-26.6 1.66-22.88 2.4-20.4 3-18.82 3.6-18.2 4.26-18.82 5.26-22.5 7.35-89.45 32-18.8 5.27-18.2 4.27-18.84 3.6-20.38 3-22.9 2.4-26.58 1.65-13.48.28" stroke="#5e5e5e" stroke-width="2" fill="none"/><path d="M957.5 530.98V532l-1 .02-.05-2 1.08-.02z" fill="#5e5e5e"/><path d="M533.4 611.93l14.17-4.92.2 9.28z" stroke="#5e5e5e" stroke-width="2" fill="#5e5e5e"/><path d="M-356 1264.67c0-3.32 2.7-6 6-6h462c3.3 0 6 2.68 6 6v242c0 3.3-2.7 6-6 6h-462c-3.3 0-6-2.7-6-6z" stroke="#5e5e5e" stroke-width="3" fill="#fff"/><g><use xlink:href="#T" transform="matrix(1,0,0,1,-344,1270.6666666666667) translate(98.51851851851852 118.40277777777777)"/><use xlink:href="#I" transform="matrix(1,0,0,1,-344,1270.6666666666667) translate(135.55555555555554 118.40277777777777)"/><use xlink:href="#U" transform="matrix(1,0,0,1,-344,1270.6666666666667) translate(172.5925925925926 118.40277777777777)"/><use xlink:href="#V" transform="matrix(1,0,0,1,-344,1270.6666666666667) translate(221.9753086419753 118.40277777777777)"/><use xlink:href="#I" transform="matrix(1,0,0,1,-344,1270.6666666666667) translate(272.4691358024691 118.40277777777777)"/><use xlink:href="#W" transform="matrix(1,0,0,1,-344,1270.6666666666667) translate(309.5061728395062 118.40277777777777)"/></g><path d="M2390 1209.33c0-3.3 2.7-6 6-6h462c3.3 0 6 2.7 6 6v242c0 3.32-2.7 6-6 6h-462c-3.3 0-6-2.68-6-6z" stroke="#5e5e5e" stroke-width="3" fill="#fff"/><g><use xlink:href="#X" transform="matrix(1,0,0,1,2402,1215.3333333333333) translate(5.462962962962962 104.02777777777777)"/><use xlink:href="#g" transform="matrix(1,0,0,1,2402,1215.3333333333333) translate(47.43827160493827 104.02777777777777)"/><use xlink:href="#o" transform="matrix(1,0,0,1,2402,1215.3333333333333) translate(89.41358024691358 104.02777777777777)"/><use xlink:href="#p" transform="matrix(1,0,0,1,2402,1215.3333333333333) translate(132.62345679012347 104.02777777777777)"/><use xlink:href="#q" transform="matrix(1,0,0,1,2402,1215.3333333333333) translate(151.141975308642 104.02777777777777)"/><use xlink:href="#u" transform="matrix(1,0,0,1,2402,1215.3333333333333) translate(241.20370370370372 104.02777777777777)"/><use xlink:href="#k" transform="matrix(1,0,0,1,2402,1215.3333333333333) translate(284.4135802469136 104.02777777777777)"/><use xlink:href="#Y" transform="matrix(1,0,0,1,2402,1215.3333333333333) translate(341.14197530864203 104.02777777777777)"/><use xlink:href="#Z" transform="matrix(1,0,0,1,2402,1215.3333333333333) translate(413.91975308641975 104.02777777777777)"/><use xlink:href="#aa" transform="matrix(1,0,0,1,2402,1215.3333333333333) translate(165.1851851851852 130.69444444444446)"/><use xlink:href="#ab" transform="matrix(1,0,0,1,2402,1215.3333333333333) translate(242.8395061728395 130.69444444444446)"/></g><path d="M1614 1690.67c0-3.32 2.7-6 6-6h462c3.3 0 6 2.68 6 6v242c0 3.3-2.7 6-6 6h-462c-3.3 0-6-2.7-6-6z" stroke="#5e5e5e" stroke-width="3" fill="#fff"/><g><use xlink:href="#ac" transform="matrix(1,0,0,1,1626,1696.6666666666667) translate(18.425925925925924 118.40277777777777)"/><use xlink:href="#n" transform="matrix(1,0,0,1,1626,1696.6666666666667) translate(102.31481481481481 118.40277777777777)"/><use xlink:href="#D" transform="matrix(1,0,0,1,1626,1696.6666666666667) translate(127.00617283950616 118.40277777777777)"/><use xlink:href="#ad" transform="matrix(1,0,0,1,1626,1696.6666666666667) translate(184.9691358024691 118.40277777777777)"/><use xlink:href="#q" transform="matrix(1,0,0,1,1626,1696.6666666666667) translate(213.2407407407407 118.40277777777777)"/><use xlink:href="#u" transform="matrix(1,0,0,1,1626,1696.6666666666667) translate(303.3024691358024 118.40277777777777)"/><use xlink:href="#I" transform="matrix(1,0,0,1,1626,1696.6666666666667) translate(346.5123456790123 118.40277777777777)"/><use xlink:href="#ae" transform="matrix(1,0,0,1,1626,1696.6666666666667) translate(383.54938271604937 118.40277777777777)"/></g><path d="M436 1700.67c0-3.32 2.7-6 6-6h462c3.3 0 6 2.68 6 6v242c0 3.3-2.7 6-6 6H442c-3.3 0-6-2.7-6-6z" stroke="#5e5e5e" stroke-width="3" fill="#fff"/><g><use xlink:href="#af" transform="matrix(1,0,0,1,448,1706.6666666666667) translate(17.839506172839492 104.02777777777777)"/><use xlink:href="#C" transform="matrix(1,0,0,1,448,1706.6666666666667) translate(54.87654320987653 104.02777777777777)"/><use xlink:href="#ag" transform="matrix(1,0,0,1,448,1706.6666666666667) translate(104.19753086419752 104.02777777777777)"/><use xlink:href="#ah" transform="matrix(1,0,0,1,448,1706.6666666666667) translate(140.98765432098764 104.02777777777777)"/><use xlink:href="#I" transform="matrix(1,0,0,1,448,1706.6666666666667) translate(178.02469135802468 104.02777777777777)"/><use xlink:href="#ai" transform="matrix(1,0,0,1,448,1706.6666666666667) translate(215.06172839506172 104.02777777777777)"/><use xlink:href="#aj" transform="matrix(1,0,0,1,448,1706.6666666666667) translate(287.77777777777777 104.02777777777777)"/><use xlink:href="#u" transform="matrix(1,0,0,1,448,1706.6666666666667) translate(353.14814814814815 104.02777777777777)"/><use xlink:href="#ak" transform="matrix(1,0,0,1,448,1706.6666666666667) translate(396.358024691358 104.02777777777777)"/><use xlink:href="#I" transform="matrix(1,0,0,1,448,1706.6666666666667) translate(172.53086419753086 130.69444444444446)"/><use xlink:href="#al" transform="matrix(1,0,0,1,448,1706.6666666666667) translate(209.5679012345679 130.69444444444446)"/></g><path d="M1114-645.67c0-3.3 2.7-6 6-6h462c3.3 0 6 2.7 6 6v242c0 3.32-2.7 6-6 6h-462c-3.3 0-6-2.68-6-6z" stroke="#5e5e5e" stroke-width="3" fill="#fff"/><g><use xlink:href="#am" transform="matrix(1,0,0,1,1126,-639.6666666666665) translate(2.9320987654321016 104.02777777777777)"/><use xlink:href="#an" transform="matrix(1,0,0,1,1126,-639.6666666666665) translate(44.90740740740741 104.02777777777777)"/><use xlink:href="#n" transform="matrix(1,0,0,1,1126,-639.6666666666665) translate(139.90740740740742 104.02777777777777)"/><use xlink:href="#D" transform="matrix(1,0,0,1,1126,-639.6666666666665) translate(164.5987654320988 104.02777777777777)"/><use xlink:href="#I" transform="matrix(1,0,0,1,1126,-639.6666666666665) translate(222.56172839506175 104.02777777777777)"/><use xlink:href="#A" transform="matrix(1,0,0,1,1126,-639.6666666666665) translate(259.5987654320988 104.02777777777777)"/><use xlink:href="#n" transform="matrix(1,0,0,1,1126,-639.6666666666665) translate(342.1913580246914 104.02777777777777)"/><use xlink:href="#I" transform="matrix(1,0,0,1,1126,-639.6666666666665) translate(366.88271604938274 104.02777777777777)"/><use xlink:href="#J" transform="matrix(1,0,0,1,1126,-639.6666666666665) translate(403.91975308641975 104.02777777777777)"/><use xlink:href="#u" transform="matrix(1,0,0,1,1126,-639.6666666666665) translate(129.41358024691357 130.69444444444446)"/><use xlink:href="#z" transform="matrix(1,0,0,1,1126,-639.6666666666665) translate(172.62345679012344 130.69444444444446)"/><use xlink:href="#E" transform="matrix(1,0,0,1,1126,-639.6666666666665) translate(209.66049382716048 130.69444444444446)"/><use xlink:href="#ao" transform="matrix(1,0,0,1,1126,-639.6666666666665) translate(244.16666666666666 130.69444444444446)"/></g><path d="M267-633.33c0-3.32 2.7-6 6-6h462c3.3 0 6 2.68 6 6v242c0 3.3-2.7 6-6 6H273c-3.3 0-6-2.7-6-6z" stroke="#5e5e5e" stroke-width="3" fill="#fff"/><g><use xlink:href="#am" transform="matrix(1,0,0,1,279,-627.3333333333333) translate(57.80864197530863 118.40277777777777)"/><use xlink:href="#I" transform="matrix(1,0,0,1,279,-627.3333333333333) translate(99.78395061728395 118.40277777777777)"/><use xlink:href="#ap" transform="matrix(1,0,0,1,279,-627.3333333333333) translate(136.820987654321 118.40277777777777)"/><use xlink:href="#n" transform="matrix(1,0,0,1,279,-627.3333333333333) translate(178.7962962962963 118.40277777777777)"/><use xlink:href="#aq" transform="matrix(1,0,0,1,279,-627.3333333333333) translate(203.48765432098767 118.40277777777777)"/><use xlink:href="#I" transform="matrix(1,0,0,1,279,-627.3333333333333) translate(278.7345679012346 118.40277777777777)"/><use xlink:href="#ao" transform="matrix(1,0,0,1,279,-627.3333333333333) translate(315.7716049382716 118.40277777777777)"/></g><path d="M2382.33 515c0-3.3 2.7-6 6-6h462c3.32 0 6 2.7 6 6v242c0 3.3-2.68 6-6 6h-462c-3.3 0-6-2.7-6-6z" stroke="#5e5e5e" stroke-width="3" fill="#fff"/><g><use xlink:href="#ar" transform="matrix(1,0,0,1,2394.3333333333335,521) translate(50.37037037037035 118.40277777777777)"/><use xlink:href="#as" transform="matrix(1,0,0,1,2394.3333333333335,521) translate(93.58024691358023 118.40277777777777)"/><use xlink:href="#C" transform="matrix(1,0,0,1,2394.3333333333335,521) translate(135.55555555555554 118.40277777777777)"/><use xlink:href="#g" transform="matrix(1,0,0,1,2394.3333333333335,521) translate(184.87654320987653 118.40277777777777)"/><use xlink:href="#H" transform="matrix(1,0,0,1,2394.3333333333335,521) translate(226.85185185185185 118.40277777777777)"/><use xlink:href="#at" transform="matrix(1,0,0,1,2394.3333333333335,521) translate(268.82716049382714 118.40277777777777)"/><use xlink:href="#au" transform="matrix(1,0,0,1,2394.3333333333335,521) translate(309.50617283950623 118.40277777777777)"/></g><path d="M2382.33 146.67c0-3.32 2.7-6 6-6h462c3.32 0 6 2.68 6 6v242c0 3.3-2.68 6-6 6h-462c-3.3 0-6-2.7-6-6z" stroke="#5e5e5e" stroke-width="3" fill="#fff"/><g><use xlink:href="#X" transform="matrix(1,0,0,1,2394.3333333333335,152.66666666666674) translate(8.395061728395035 104.02777777777777)"/><use xlink:href="#g" transform="matrix(1,0,0,1,2394.3333333333335,152.66666666666674) translate(50.370370370370345 104.02777777777777)"/><use xlink:href="#o" transform="matrix(1,0,0,1,2394.3333333333335,152.66666666666674) translate(92.34567901234566 104.02777777777777)"/><use xlink:href="#p" transform="matrix(1,0,0,1,2394.3333333333335,152.66666666666674) translate(135.55555555555554 104.02777777777777)"/><use xlink:href="#av" transform="matrix(1,0,0,1,2394.3333333333335,152.66666666666674) translate(154.07407407407408 104.02777777777777)"/><use xlink:href="#n" transform="matrix(1,0,0,1,2394.3333333333335,152.66666666666674) translate(250.37037037037038 104.02777777777777)"/><use xlink:href="#k" transform="matrix(1,0,0,1,2394.3333333333335,152.66666666666674) translate(275.0617283950617 104.02777777777777)"/><use xlink:href="#Y" transform="matrix(1,0,0,1,2394.3333333333335,152.66666666666674) translate(331.7901234567901 104.02777777777777)"/><use xlink:href="#aw" transform="matrix(1,0,0,1,2394.3333333333335,152.66666666666674) translate(404.5679012345679 104.02777777777777)"/><use xlink:href="#ag" transform="matrix(1,0,0,1,2394.3333333333335,152.66666666666674) translate(102.5 130.69444444444446)"/><use xlink:href="#ax" transform="matrix(1,0,0,1,2394.3333333333335,152.66666666666674) translate(139.29012345679013 130.69444444444446)"/><use xlink:href="#ay" transform="matrix(1,0,0,1,2394.3333333333335,152.66666666666674) translate(214.53703703703704 130.69444444444446)"/><use xlink:href="#az" transform="matrix(1,0,0,1,2394.3333333333335,152.66666666666674) translate(237.9320987654321 130.69444444444446)"/><use xlink:href="#aA" transform="matrix(1,0,0,1,2394.3333333333335,152.66666666666674) translate(287.19135802469134 130.69444444444446)"/></g><path d="M-676 648.67c0-3.32 2.7-6 6-6h462c3.3 0 6 2.68 6 6v242c0 3.3-2.7 6-6 6h-462c-3.3 0-6-2.7-6-6z" stroke="#5e5e5e" stroke-width="3" fill="#fff"/><g><use xlink:href="#ac" transform="matrix(1,0,0,1,-664,654.6666666666667) translate(10.925925925925952 104.02777777777777)"/><use xlink:href="#aB" transform="matrix(1,0,0,1,-664,654.6666666666667) translate(94.81481481481484 104.02777777777777)"/><use xlink:href="#I" transform="matrix(1,0,0,1,-664,654.6666666666667) translate(173.76543209876544 104.02777777777777)"/><use xlink:href="#U" transform="matrix(1,0,0,1,-664,654.6666666666667) translate(210.80246913580248 104.02777777777777)"/><use xlink:href="#V" transform="matrix(1,0,0,1,-664,654.6666666666667) translate(260.1851851851852 104.02777777777777)"/><use xlink:href="#I" transform="matrix(1,0,0,1,-664,654.6666666666667) translate(310.679012345679 104.02777777777777)"/><use xlink:href="#aC" transform="matrix(1,0,0,1,-664,654.6666666666667) translate(347.71604938271605 104.02777777777777)"/><use xlink:href="#u" transform="matrix(1,0,0,1,-664,654.6666666666667) translate(113.36419753086419 130.69444444444446)"/><use xlink:href="#D" transform="matrix(1,0,0,1,-664,654.6666666666667) translate(156.57407407407408 130.69444444444446)"/><use xlink:href="#aD" transform="matrix(1,0,0,1,-664,654.6666666666667) translate(214.537037037037 130.69444444444446)"/><use xlink:href="#n" transform="matrix(1,0,0,1,-664,654.6666666666667) translate(231.75925925925924 130.69444444444446)"/><use xlink:href="#I" transform="matrix(1,0,0,1,-664,654.6666666666667) translate(256.45061728395063 130.69444444444446)"/><use xlink:href="#J" transform="matrix(1,0,0,1,-664,654.6666666666667) translate(293.48765432098764 130.69444444444446)"/></g><path d="M-666 256.67c0-3.32 2.7-6 6-6h462c3.3 0 6 2.68 6 6v242c0 3.3-2.7 6-6 6h-462c-3.3 0-6-2.7-6-6z" stroke="#5e5e5e" stroke-width="3" fill="#fff"/><g><use xlink:href="#ac" transform="matrix(1,0,0,1,-654,262.66666666666674) translate(3.456790123456784 104.02777777777777)"/><use xlink:href="#t" transform="matrix(1,0,0,1,-654,262.66666666666674) translate(87.34567901234567 104.02777777777777)"/><use xlink:href="#p" transform="matrix(1,0,0,1,-654,262.66666666666674) translate(141.66666666666666 104.02777777777777)"/><use xlink:href="#aE" transform="matrix(1,0,0,1,-654,262.66666666666674) translate(160.1851851851852 104.02777777777777)"/><use xlink:href="#aF" transform="matrix(1,0,0,1,-654,262.66666666666674) translate(208.33333333333334 104.02777777777777)"/><use xlink:href="#n" transform="matrix(1,0,0,1,-654,262.66666666666674) translate(288.5185185185185 104.02777777777777)"/><use xlink:href="#aG" transform="matrix(1,0,0,1,-654,262.66666666666674) translate(313.2098765432098 104.02777777777777)"/><use xlink:href="#I" transform="matrix(1,0,0,1,-654,262.66666666666674) translate(366.2962962962963 104.02777777777777)"/><use xlink:href="#aH" transform="matrix(1,0,0,1,-654,262.66666666666674) translate(403.33333333333337 104.02777777777777)"/><use xlink:href="#ay" transform="matrix(1,0,0,1,-654,262.66666666666674) translate(149.10493827160494 130.69444444444446)"/><use xlink:href="#I" transform="matrix(1,0,0,1,-654,262.66666666666674) translate(172.5 130.69444444444446)"/><use xlink:href="#aI" transform="matrix(1,0,0,1,-654,262.66666666666674) translate(209.53703703703704 130.69444444444446)"/></g><path d="M203.1 537.56l-22.8-11.23-24.9-13.6-28.32-17.04-43.5-28.9L6.6 414.4l-20.87-12.57-16.8-9.17-14.83-7.3-13.75-6.08-13.14-5.15-12.83-4.43-12.76-3.8-12.87-3.27-13.16-2.75-13.6-2.25-14.24-1.74-15.04-1.22-4.7-.18M203.08 537.54l.92.46" stroke="#5e5e5e" stroke-width="2" fill="none"/><path d="M-187.27 354.1l14.4-4.26-.26 9.26z" stroke="#5e5e5e" stroke-width="2" fill="#5e5e5e"/><path d="M176.16 612.02l-9.38.2-9.7.6-9.12.96-8.64 1.28-8.24 1.57-7.9 1.85-7.65 2.13-7.43 2.43-7.3 2.7-7.17 3.03-7.15 3.36-7.17 3.75-7.25 4.2-7.45 4.72-7.74 5.38-8.23 6.25-8.98 7.44-10.3 9.3-13.13 12.87-68.9 72.8-10.3 9.3-9 7.43-8.2 6.25-7.76 5.4-7.44 4.7-7.27 4.2-7.17 3.76-7.14 3.36-7.2 3.02-7.27 2.7-7.43 2.43-7.65 2.12-7.9 1.85-8.25 1.57-8.64 1.28-9.1.96-1.62.1" stroke="#5e5e5e" stroke-width="2" fill="none"/><path d="M177.17 612v1l-1 .02-.06-2 1.1-.02z" fill="#5e5e5e"/><path d="M-197.27 819.87l14.08-5.2.37 9.28z" stroke="#5e5e5e" stroke-width="2" fill="#5e5e5e"/><path d="M1961.17 434.98l14.8-.3 14.38-.9 13.23-1.4 12.3-1.8 11.54-2.2 10.94-2.57 10.48-2.92 10.15-3.3 9.93-3.7 9.86-4.14 9.94-4.68 10.23-5.35 10.83-6.25 12-7.63 14.6-10.17 27.3-20.9 40.9-31.73 14.6-10.17 12-7.63 10.83-6.26 10.23-5.35 9.95-4.67 9.87-4.15 9.94-3.7 10.16-3.3 10.48-2.92 10.94-2.57 11.55-2.2 12.3-1.82 13.22-1.4 11.7-.72" stroke="#5e5e5e" stroke-width="2" fill="none"/><path d="M1961.22 435.98l-1.07.02.02-1v-1l1-.02z" fill="#5e5e5e"/><path d="M2377.6 267.75l-14.14 5.02-.25-9.27z" stroke="#5e5e5e" stroke-width="2" fill="#5e5e5e"/><path d="M1961.17 435.02l12.26.25 12.26.77 11.4 1.2 10.75 1.58 10.16 1.94 9.72 2.28 9.34 2.6 9.06 2.95 8.86 3.28 8.74 3.68 8.72 4.1 8.8 4.6 9 5.2 9.37 5.96 10.05 6.98 11.18 8.5 13.5 11.2 21.4 19.36 50.93 47.45 13.5 11.2 11.2 8.5 10.03 6.98 9.37 5.96 9 5.2 8.8 4.6 8.7 4.1 8.75 3.68 8.86 3.3 9.06 2.93 9.34 2.6 9.7 2.3 10.17 1.93 10.74 1.58 11.4 1.2 7.04.44" stroke="#5e5e5e" stroke-width="2" fill="none"/><path d="M1961.22 434.02l-.04 2-1.03-.02.02-1v-1z" fill="#5e5e5e"/><path d="M2377.6 635.9l-14.4 4.16.3-9.26z" stroke="#5e5e5e" stroke-width="2" fill="#5e5e5e"/><path d="M940.02-95.84l.05-2.42.2-3.33.35-3.24.48-3.2.6-3.15.73-3.1.86-3.1 1-3.1 1.14-3.08 1.3-3.1 1.48-3.13 1.66-3.18 1.86-3.23 2.1-3.3 2.35-3.38 2.64-3.5 3-3.6 3.38-3.77 3.87-3.94 4.42-4.16 5.13-4.42 6-4.75 7.1-5.14 8.5-5.65 10.45-6.32 13.2-7.24 17.5-8.66 25.4-11.27 52.77-20.65 104.63-39.74 25.4-11.26 17.5-8.66 13.2-7.24 10.45-6.32 8.5-5.65 7.1-5.14 6-4.75 5.13-4.42 4.43-4.17 3.88-3.95 3.4-3.77 2.98-3.6 2.65-3.5 2.36-3.38 2.1-3.3 1.86-3.22 1.66-3.17 1.47-3.12 1.3-3.1 1.16-3.1 1-3.08.87-3.1.27-1.14" stroke="#5e5e5e" stroke-width="2" fill="none"/><path d="M941.02-95.84L941-94.8l-1-.03h-1l.02-1.05z" fill="#5e5e5e"/><path d="M1350.62-392.95l2.94 14.7-9.2-1.08z" stroke="#5e5e5e" stroke-width="2" fill="#5e5e5e"/><path d="M939.98-95.84l-.04-1.97-.18-2.9-.3-2.85-.42-2.8-.52-2.76-.65-2.75-.76-2.73-.88-2.73-1-2.75-1.17-2.75-1.3-2.8-1.5-2.82-1.66-2.88-1.88-2.94-2.1-3.03-2.38-3.13-2.7-3.25-3.04-3.4-3.5-3.54-3.98-3.74-4.63-4-5.4-4.26-6.37-4.62-7.6-5.05-9.28-5.6-11.55-6.35-14.9-7.37-20.3-9-31.12-12.26L614-278.06l-20.3-9-14.9-7.4-11.55-6.33-9.27-5.6-7.6-5.04-6.38-4.62-5.4-4.28-4.62-3.98-4-3.75-3.48-3.56-3.05-3.4-2.7-3.23-2.36-3.13-2.12-3.02-1.87-2.95-1.66-2.88-1.48-2.83-1.3-2.78-1.17-2.76-1.02-2.73-.9-2.73-.4-1.48" stroke="#5e5e5e" stroke-width="2" fill="none"/><path d="M941-94.8l-1-.03h-1l-.02-1 2-.05z" fill="#5e5e5e"/><path d="M504.43-380.63l6.5 13.52-9.17 1.23z" stroke="#5e5e5e" stroke-width="2" fill="#5e5e5e"/><path d="M1939.84 1129.35l14.1.3 13.9.87 12.9 1.35 12.05 1.78 11.38 2.17 10.85 2.54 10.4 2.9 10.1 3.3 9.87 3.66 9.76 4.1 9.74 4.6 9.9 5.16 10.2 5.9 10.77 6.84 11.83 8.23 13.9 10.57 19.72 16.38 64.62 56.05 13.9 10.57 11.82 8.23 10.8 6.85 10.2 5.9 9.87 5.16 9.75 4.6 9.75 4.1 9.87 3.66 10.1 3.28 10.4 2.9 10.85 2.55 11.4 2.17 12.06 1.78 12.9 1.35 10.5.66" stroke="#5e5e5e" stroke-width="2" fill="none"/><path d="M1939.9 1128.35l-.06 2-1.03-.02.03-1v-1z" fill="#5e5e5e"/><path d="M2385.27 1330.24l-14.4 4.23.27-9.27z" stroke="#5e5e5e" stroke-width="2" fill="#5e5e5e"/><path d="M1756.35 1315.84l.4 19.85 1.14 18.1 1.67 16.04 2.14 14.5 2.56 13.4 2.95 12.58 3.4 12.16 3.93 12.07 4.67 12.54 5.9 14.03 9.25 19.53 27.87 56.2 5.92 14.05 4.66 12.55 3.93 12.07 3.4 12.16 2.94 12.6 2.55 13.37 2.14 14.5 1.68 16.06 1.13 18.1.05 2.37" stroke="#5e5e5e" stroke-width="2" fill="none"/><path d="M1756.33 1314.83h1l.02 1-2 .05-.02-1.07z" fill="#5e5e5e"/><path d="M1850.93 1679.93l-4.92-14.17 9.28-.2z" stroke="#5e5e5e" stroke-width="2" fill="#5e5e5e"/><path d="M508.5 1188.7l-10.66.2-10.82.7-10.12 1.05-9.54 1.4-9.06 1.73-8.66 2.03-8.36 2.35-8.1 2.63-7.94 2.95-7.83 3.3-7.78 3.66-7.85 4.1-7.98 4.6-8.27 5.25-8.7 6.06-9.47 7.2-10.82 8.96-13.76 12.42-70.32 68.2-10.82 8.96-9.46 7.2-8.7 6.05-8.27 5.23-7.97 4.6-7.85 4.1-7.8 3.68-7.82 3.3-7.93 2.95-8.1 2.64-8.37 2.32-8.66 2.03-9.06 1.73-9.54 1.4-10.12 1.07-4 .25" stroke="#5e5e5e" stroke-width="2" fill="none"/><path d="M509.5 1188.66v1l-1 .03-.05-2 1.07-.03z" fill="#5e5e5e"/><path d="M122.73 1385.55l14.1-5.15.33 9.27z" stroke="#5e5e5e" stroke-width="2" fill="#5e5e5e"/><path d="M705.98 1391.17l-.7 35.88-1.73 27.76-2.42 23.1-3.22 21.78-5.67 29.37-11.14 54.6-3.23 21.8-2.42 23.07-1.72 27.76-.36 18.4" stroke="#5e5e5e" stroke-width="2" fill="none"/><path d="M706 1390.17h1l-.02 1.05-2-.04.02-1.03z" fill="#5e5e5e"/><path d="M673.06 1689.93l-4.35-14.35 9.28.18z" stroke="#5e5e5e" stroke-width="2" fill="#5e5e5e"/><defs><path fill="#333" d="M30 0v-248h187v28H63v79h144v27H63v87h162V0H30" id="aJ"/><path fill="#333" d="M210-169c-67 3-38 105-44 169h-31v-121c0-29-5-50-35-48C34-165 62-65 56 0H25l-1-190h30c1 10-1 24 2 32 10-44 99-50 107 0 11-21 27-35 58-36 85-2 47 119 55 194h-31v-121c0-29-5-49-35-48" id="aK"/><path fill="#333" d="M100-194c63 0 86 42 84 106H49c0 40 14 67 53 68 26 1 43-12 49-29l28 8c-11 28-37 45-77 45C44 4 14-33 15-96c1-61 26-98 85-98zm52 81c6-60-76-77-97-28-3 7-6 17-6 28h103" id="aL"/><path fill="#333" d="M114-163C36-179 61-72 57 0H25l-1-190h30c1 12-1 29 2 39 6-27 23-49 58-41v29" id="aM"/><path fill="#333" d="M177-190C167-65 218 103 67 71c-23-6-38-20-44-43l32-5c15 47 100 32 89-28v-30C133-14 115 1 83 1 29 1 15-40 15-95c0-56 16-97 71-98 29-1 48 16 59 35 1-10 0-23 2-32h30zM94-22c36 0 50-32 50-73 0-42-14-75-50-75-39 0-46 34-46 75s6 73 46 73" id="aN"/><path fill="#333" d="M117-194c89-4 53 116 60 194h-32v-121c0-31-8-49-39-48C34-167 62-67 57 0H25l-1-190h30c1 10-1 24 2 32 11-22 29-35 61-36" id="aO"/><path fill="#333" d="M96-169c-40 0-48 33-48 73s9 75 48 75c24 0 41-14 43-38l32 2c-6 37-31 61-74 61-59 0-76-41-82-99-10-93 101-131 147-64 4 7 5 14 7 22l-32 3c-4-21-16-35-41-35" id="aP"/><path fill="#333" d="M179-190L93 31C79 59 56 82 12 73V49c39 6 53-20 64-50L1-190h34L92-34l54-156h33" id="aQ"/><g id="a"><use transform="matrix(0.06172839506172839,0,0,0.06172839506172839,0,0)" xlink:href="#aJ"/><use transform="matrix(0.06172839506172839,0,0,0.06172839506172839,14.814814814814813,0)" xlink:href="#aK"/><use transform="matrix(0.06172839506172839,0,0,0.06172839506172839,33.2716049382716,0)" xlink:href="#aL"/><use transform="matrix(0.06172839506172839,0,0,0.06172839506172839,45.61728395061728,0)" xlink:href="#aM"/><use transform="matrix(0.06172839506172839,0,0,0.06172839506172839,52.962962962962955,0)" xlink:href="#aN"/><use transform="matrix(0.06172839506172839,0,0,0.06172839506172839,65.30864197530863,0)" xlink:href="#aL"/><use transform="matrix(0.06172839506172839,0,0,0.06172839506172839,77.65432098765432,0)" xlink:href="#aO"/><use transform="matrix(0.06172839506172839,0,0,0.06172839506172839,90,0)" xlink:href="#aP"/><use transform="matrix(0.06172839506172839,0,0,0.06172839506172839,101.11111111111111,0)" xlink:href="#aQ"/></g><path fill="#333" d="M206 0h-36l-40-164L89 0H53L-1-190h32L70-26l43-164h34l41 164 42-164h31" id="aR"/><path fill="#333" d="M115-194c53 0 69 39 70 98 0 66-23 100-70 100C84 3 66-7 56-30L54 0H23l1-261h32v101c10-23 28-34 59-34zm-8 174c40 0 45-34 45-75 0-40-5-75-45-74-42 0-51 32-51 76 0 43 10 73 51 73" id="aS"/><g id="b"><use transform="matrix(0.06172839506172839,0,0,0.06172839506172839,0,0)" xlink:href="#aR"/><use transform="matrix(0.06172839506172839,0,0,0.06172839506172839,15.987654320987653,0)" xlink:href="#aL"/><use transform="matrix(0.06172839506172839,0,0,0.06172839506172839,28.333333333333332,0)" xlink:href="#aS"/></g><path fill="#333" d="M141-36C126-15 110 5 73 4 37 3 15-17 15-53c-1-64 63-63 125-63 3-35-9-54-41-54-24 1-41 7-42 31l-33-3c5-37 33-52 76-52 45 0 72 20 72 64v82c-1 20 7 32 28 27v20c-31 9-61-2-59-35zM48-53c0 20 12 33 32 33 41-3 63-29 60-74-43 2-92-5-92 41" id="aT"/><path fill="#333" d="M115-194c55 1 70 41 70 98S169 2 115 4C84 4 66-9 55-30l1 105H24l-1-265h31l2 30c10-21 28-34 59-34zm-8 174c40 0 45-34 45-75s-6-73-45-74c-42 0-51 32-51 76 0 43 10 73 51 73" id="aU"/><path fill="#333" d="M24 0v-261h32V0H24" id="aV"/><path fill="#333" d="M24-231v-30h32v30H24zM24 0v-190h32V0H24" id="aW"/><path fill="#333" d="M59-47c-2 24 18 29 38 22v24C64 9 27 4 27-40v-127H5v-23h24l9-43h21v43h35v23H59v120" id="aX"/><path fill="#333" d="M100-194c62-1 85 37 85 99 1 63-27 99-86 99S16-35 15-95c0-66 28-99 85-99zM99-20c44 1 53-31 53-75 0-43-8-75-51-75s-53 32-53 75 10 74 51 75" id="aY"/><g id="c"><use transform="matrix(0.06172839506172839,0,0,0.06172839506172839,0,0)" xlink:href="#aT"/><use transform="matrix(0.06172839506172839,0,0,0.06172839506172839,12.345679012345679,0)" xlink:href="#aU"/><use transform="matrix(0.06172839506172839,0,0,0.06172839506172839,24.691358024691358,0)" xlink:href="#aU"/><use transform="matrix(0.06172839506172839,0,0,0.06172839506172839,37.03703703703704,0)" xlink:href="#aV"/><use transform="matrix(0.06172839506172839,0,0,0.06172839506172839,41.91358024691358,0)" xlink:href="#aW"/><use transform="matrix(0.06172839506172839,0,0,0.06172839506172839,46.79012345679013,0)" xlink:href="#aP"/><use transform="matrix(0.06172839506172839,0,0,0.06172839506172839,57.90123456790124,0)" xlink:href="#aT"/><use transform="matrix(0.06172839506172839,0,0,0.06172839506172839,70.24691358024693,0)" xlink:href="#aX"/><use transform="matrix(0.06172839506172839,0,0,0.06172839506172839,76.41975308641976,0)" xlink:href="#aW"/><use transform="matrix(0.06172839506172839,0,0,0.06172839506172839,81.2962962962963,0)" xlink:href="#aY"/><use transform="matrix(0.06172839506172839,0,0,0.06172839506172839,93.64197530864199,0)" xlink:href="#aO"/></g><path fill="#333" d="M101-234c-31-9-42 10-38 44h38v23H63V0H32v-167H5v-23h27c-7-52 17-82 69-68v24" id="aZ"/><path fill="#333" d="M85-194c31 0 48 13 60 33l-1-100h32l1 261h-30c-2-10 0-23-3-31C134-8 116 4 85 4 32 4 16-35 15-94c0-66 23-100 70-100zm9 24c-40 0-46 34-46 75 0 40 6 74 45 74 42 0 51-32 51-76 0-42-9-74-50-73" id="ba"/><path fill="#333" d="M143 0L79-87 56-68V0H24v-261h32v163l83-92h37l-77 82L181 0h-38" id="bb"/><g id="d"><use transform="matrix(0.06172839506172839,0,0,0.06172839506172839,0,0)" xlink:href="#aZ"/><use transform="matrix(0.06172839506172839,0,0,0.06172839506172839,6.172839506172839,0)" xlink:href="#aL"/><use transform="matrix(0.06172839506172839,0,0,0.06172839506172839,18.51851851851852,0)" xlink:href="#aL"/><use transform="matrix(0.06172839506172839,0,0,0.06172839506172839,30.864197530864196,0)" xlink:href="#ba"/><use transform="matrix(0.06172839506172839,0,0,0.06172839506172839,43.20987654320987,0)" xlink:href="#aS"/><use transform="matrix(0.06172839506172839,0,0,0.06172839506172839,55.55555555555555,0)" xlink:href="#aT"/><use transform="matrix(0.06172839506172839,0,0,0.06172839506172839,67.90123456790123,0)" xlink:href="#aP"/><use transform="matrix(0.06172839506172839,0,0,0.06172839506172839,79.01234567901234,0)" xlink:href="#bb"/></g><path fill="#333" d="M33-154v-36h34v36H33zM33 0v-36h34V0H33" id="bc"/><use transform="matrix(0.06172839506172839,0,0,0.06172839506172839,0,0)" xlink:href="#bc" id="e"/><path fill="#333" d="M108 0H70L1-190h34L89-25l56-165h34" id="bd"/><g id="f"><use transform="matrix(0.06172839506172839,0,0,0.06172839506172839,0,0)" xlink:href="#aL"/><use transform="matrix(0.06172839506172839,0,0,0.06172839506172839,12.345679012345679,0)" xlink:href="#bd"/><use transform="matrix(0.06172839506172839,0,0,0.06172839506172839,23.45679012345679,0)" xlink:href="#aL"/><use transform="matrix(0.06172839506172839,0,0,0.06172839506172839,35.80246913580247,0)" xlink:href="#aM"/><use transform="matrix(0.06172839506172839,0,0,0.06172839506172839,43.148148148148145,0)" xlink:href="#aQ"/><use transform="matrix(0.06172839506172839,0,0,0.06172839506172839,54.25925925925925,0)" xlink:href="#aY"/><use transform="matrix(0.06172839506172839,0,0,0.06172839506172839,66.60493827160494,0)" xlink:href="#aO"/><use transform="matrix(0.06172839506172839,0,0,0.06172839506172839,78.95061728395062,0)" xlink:href="#aL"/></g><g id="g"><use transform="matrix(0.06172839506172839,0,0,0.06172839506172839,0,0)" xlink:href="#aP"/><use transform="matrix(0.06172839506172839,0,0,0.06172839506172839,11.11111111111111,0)" xlink:href="#aT"/><use transform="matrix(0.06172839506172839,0,0,0.06172839506172839,23.45679012345679,0)" xlink:href="#aO"/></g><g id="h"><use transform="matrix(0.06172839506172839,0,0,0.06172839506172839,0,0)" xlink:href="#aN"/><use transform="matrix(0.06172839506172839,0,0,0.06172839506172839,12.345679012345679,0)" xlink:href="#aW"/><use transform="matrix(0.06172839506172839,0,0,0.06172839506172839,17.22222222222222,0)" xlink:href="#bd"/><use transform="matrix(0.06172839506172839,0,0,0.06172839506172839,28.333333333333332,0)" xlink:href="#aL"/></g><g id="i"><use transform="matrix(0.06172839506172839,0,0,0.06172839506172839,0,0)" xlink:href="#aZ"/><use transform="matrix(0.06172839506172839,0,0,0.06172839506172839,6.172839506172839,0)" xlink:href="#aL"/><use transform="matrix(0.06172839506172839,0,0,0.06172839506172839,18.51851851851852,0)" xlink:href="#aL"/><use transform="matrix(0.06172839506172839,0,0,0.06172839506172839,30.864197530864196,0)" xlink:href="#ba"/><use transform="matrix(0.06172839506172839,0,0,0.06172839506172839,43.20987654320987,0)" xlink:href="#aS"/><use transform="matrix(0.06172839506172839,0,0,0.06172839506172839,55.55555555555555,0)" xlink:href="#aT"/><use transform="matrix(0.06172839506172839,0,0,0.06172839506172839,67.90123456790123,0)" xlink:href="#aP"/><use transform="matrix(0.06172839506172839,0,0,0.06172839506172839,79.01234567901234,0)" xlink:href="#bb"/></g><g id="j"><use transform="matrix(0.06172839506172839,0,0,0.06172839506172839,0,0)" xlink:href="#aZ"/><use transform="matrix(0.06172839506172839,0,0,0.06172839506172839,6.172839506172839,0)" xlink:href="#aY"/><use transform="matrix(0.06172839506172839,0,0,0.06172839506172839,18.51851851851852,0)" xlink:href="#aM"/></g><path fill="#333" d="M106-169C34-169 62-67 57 0H25v-261h32l-1 103c12-21 28-36 61-36 89 0 53 116 60 194h-32v-121c2-32-8-49-39-48" id="be"/><g id="k"><use transform="matrix(0.06172839506172839,0,0,0.06172839506172839,0,0)" xlink:href="#aY"/><use transform="matrix(0.06172839506172839,0,0,0.06172839506172839,12.345679012345679,0)" xlink:href="#aX"/><use transform="matrix(0.06172839506172839,0,0,0.06172839506172839,18.51851851851852,0)" xlink:href="#be"/><use transform="matrix(0.06172839506172839,0,0,0.06172839506172839,30.864197530864196,0)" xlink:href="#aL"/><use transform="matrix(0.06172839506172839,0,0,0.06172839506172839,43.20987654320987,0)" xlink:href="#aM"/></g><path fill="#333" d="M84 4C-5 8 30-112 23-190h32v120c0 31 7 50 39 49 72-2 45-101 50-169h31l1 190h-30c-1-10 1-25-2-33-11 22-28 36-60 37" id="bf"/><path fill="#333" d="M135-143c-3-34-86-38-87 0 15 53 115 12 119 90S17 21 10-45l28-5c4 36 97 45 98 0-10-56-113-15-118-90-4-57 82-63 122-42 12 7 21 19 24 35" id="bg"/><g id="l"><use transform="matrix(0.06172839506172839,0,0,0.06172839506172839,0,0)" xlink:href="#bf"/><use transform="matrix(0.06172839506172839,0,0,0.06172839506172839,12.345679012345679,0)" xlink:href="#bg"/><use transform="matrix(0.06172839506172839,0,0,0.06172839506172839,23.45679012345679,0)" xlink:href="#aL"/><use transform="matrix(0.06172839506172839,0,0,0.06172839506172839,35.80246913580247,0)" xlink:href="#aM"/></g><path fill="#333" d="M63-220v92h138v28H63V0H30v-248h175v28H63" id="bh"/><path fill="#333" d="M205 0l-28-72H64L36 0H1l101-248h38L239 0h-34zm-38-99l-47-123c-12 45-31 82-46 123h93" id="bi"/><path fill="#333" d="M140-251c81 0 123 46 123 126C263-53 228-8 163 1c7 30 30 48 69 40v23c-55 16-95-15-103-61C56-3 17-48 17-125c0-80 42-126 123-126zm0 227c63 0 89-41 89-101s-29-99-89-99c-61 0-89 39-89 99S79-25 140-24" id="bj"/><g id="m"><use transform="matrix(0.06172839506172839,0,0,0.06172839506172839,0,0)" xlink:href="#bh"/><use transform="matrix(0.06172839506172839,0,0,0.06172839506172839,12.28395061728395,0)" xlink:href="#bi"/><use transform="matrix(0.06172839506172839,0,0,0.06172839506172839,27.098765432098762,0)" xlink:href="#bj"/><use transform="matrix(0.06172839506172839,0,0,0.06172839506172839,44.38271604938271,0)" xlink:href="#bg"/></g><g id="n"><use transform="matrix(0.06172839506172839,0,0,0.06172839506172839,0,0)" xlink:href="#aX"/><use transform="matrix(0.06172839506172839,0,0,0.06172839506172839,6.172839506172839,0)" xlink:href="#aY"/></g><g id="o"><use transform="matrix(0.06172839506172839,0,0,0.06172839506172839,0,0)" xlink:href="#aT"/><use transform="matrix(0.06172839506172839,0,0,0.06172839506172839,12.345679012345679,0)" xlink:href="#ba"/><use transform="matrix(0.06172839506172839,0,0,0.06172839506172839,24.691358024691358,0)" xlink:href="#ba"/></g><use transform="matrix(0.06172839506172839,0,0,0.06172839506172839,0,0)" xlink:href="#aT" id="p"/><path fill="#333" d="M145-31C134-9 116 4 85 4 32 4 16-35 15-94c0-59 17-99 70-100 32-1 48 14 60 33 0-11-1-24 2-32h30l-1 268h-32zM93-21c41 0 51-33 51-76s-8-73-50-73c-40 0-46 35-46 75s5 74 45 74" id="bk"/><g id="q"><use transform="matrix(0.06172839506172839,0,0,0.06172839506172839,0,0)" xlink:href="#bk"/><use transform="matrix(0.06172839506172839,0,0,0.06172839506172839,12.345679012345679,0)" xlink:href="#bf"/><use transform="matrix(0.06172839506172839,0,0,0.06172839506172839,24.691358024691358,0)" xlink:href="#aL"/><use transform="matrix(0.06172839506172839,0,0,0.06172839506172839,37.03703703703704,0)" xlink:href="#bg"/><use transform="matrix(0.06172839506172839,0,0,0.06172839506172839,48.14814814814815,0)" xlink:href="#aX"/><use transform="matrix(0.06172839506172839,0,0,0.06172839506172839,54.320987654320994,0)" xlink:href="#aW"/><use transform="matrix(0.06172839506172839,0,0,0.06172839506172839,59.19753086419754,0)" xlink:href="#aY"/><use transform="matrix(0.06172839506172839,0,0,0.06172839506172839,71.54320987654322,0)" xlink:href="#aO"/></g><g id="r"><use transform="matrix(0.06172839506172839,0,0,0.06172839506172839,0,0)" xlink:href="#aW"/><use transform="matrix(0.06172839506172839,0,0,0.06172839506172839,4.876543209876543,0)" xlink:href="#aZ"/></g><g id="s"><use transform="matrix(0.06172839506172839,0,0,0.06172839506172839,0,0)" xlink:href="#aQ"/><use transform="matrix(0.06172839506172839,0,0,0.06172839506172839,11.11111111111111,0)" xlink:href="#aY"/><use transform="matrix(0.06172839506172839,0,0,0.06172839506172839,23.45679012345679,0)" xlink:href="#bf"/></g><g id="t"><use transform="matrix(0.06172839506172839,0,0,0.06172839506172839,0,0)" xlink:href="#be"/><use transform="matrix(0.06172839506172839,0,0,0.06172839506172839,12.345679012345679,0)" xlink:href="#aT"/><use transform="matrix(0.06172839506172839,0,0,0.06172839506172839,24.691358024691358,0)" xlink:href="#bd"/><use transform="matrix(0.06172839506172839,0,0,0.06172839506172839,35.80246913580247,0)" xlink:href="#aL"/></g><g id="u"><use transform="matrix(0.06172839506172839,0,0,0.06172839506172839,0,0)" xlink:href="#aT"/><use transform="matrix(0.06172839506172839,0,0,0.06172839506172839,12.345679012345679,0)" xlink:href="#aO"/><use transform="matrix(0.06172839506172839,0,0,0.06172839506172839,24.691358024691358,0)" xlink:href="#ba"/></g><g id="v"><use transform="matrix(0.06172839506172839,0,0,0.06172839506172839,0,0)" xlink:href="#aM"/><use transform="matrix(0.06172839506172839,0,0,0.06172839506172839,7.345679012345679,0)" xlink:href="#aL"/><use transform="matrix(0.06172839506172839,0,0,0.06172839506172839,19.691358024691358,0)" xlink:href="#aU"/><use transform="matrix(0.06172839506172839,0,0,0.06172839506172839,32.03703703703704,0)" xlink:href="#aV"/><use transform="matrix(0.06172839506172839,0,0,0.06172839506172839,36.91358024691358,0)" xlink:href="#aQ"/></g><g id="w"><use transform="matrix(0.06172839506172839,0,0,0.06172839506172839,0,0)" xlink:href="#aY"/><use transform="matrix(0.06172839506172839,0,0,0.06172839506172839,12.345679012345679,0)" xlink:href="#aX"/><use transform="matrix(0.06172839506172839,0,0,0.06172839506172839,18.51851851851852,0)" xlink:href="#be"/><use transform="matrix(0.06172839506172839,0,0,0.06172839506172839,30.864197530864196,0)" xlink:href="#aL"/><use transform="matrix(0.06172839506172839,0,0,0.06172839506172839,43.20987654320987,0)" xlink:href="#aX"/></g><g id="x"><use transform="matrix(0.06172839506172839,0,0,0.06172839506172839,0,0)" xlink:href="#aR"/><use transform="matrix(0.06172839506172839,0,0,0.06172839506172839,15.987654320987653,0)" xlink:href="#aT"/><use transform="matrix(0.06172839506172839,0,0,0.06172839506172839,28.333333333333332,0)" xlink:href="#aO"/><use transform="matrix(0.06172839506172839,0,0,0.06172839506172839,40.67901234567901,0)" xlink:href="#aX"/></g><path fill="#333" d="M87 75C49 33 22-17 22-94c0-76 28-126 65-167h31c-38 41-64 92-64 168S80 34 118 75H87" id="bl"/><path fill="#333" d="M30-248c87 1 191-15 191 75 0 78-77 80-158 76V0H30v-248zm33 125c57 0 124 11 124-50 0-59-68-47-124-48v98" id="bm"/><path fill="#333" d="M33 0v-248h34V0H33" id="bn"/><path fill="#333" d="M33-261c38 41 65 92 65 168S71 34 33 75H2C39 34 66-17 66-93S39-220 2-261h31" id="bo"/><g id="y"><use transform="matrix(0.06172839506172839,0,0,0.06172839506172839,0,0)" xlink:href="#aV"/><use transform="matrix(0.06172839506172839,0,0,0.06172839506172839,4.876543209876543,0)" xlink:href="#aY"/><use transform="matrix(0.06172839506172839,0,0,0.06172839506172839,17.22222222222222,0)" xlink:href="#aP"/><use transform="matrix(0.06172839506172839,0,0,0.06172839506172839,28.333333333333332,0)" xlink:href="#aT"/><use transform="matrix(0.06172839506172839,0,0,0.06172839506172839,40.67901234567901,0)" xlink:href="#aX"/><use transform="matrix(0.06172839506172839,0,0,0.06172839506172839,46.851851851851855,0)" xlink:href="#aW"/><use transform="matrix(0.06172839506172839,0,0,0.06172839506172839,51.7283950617284,0)" xlink:href="#aY"/><use transform="matrix(0.06172839506172839,0,0,0.06172839506172839,64.07407407407408,0)" xlink:href="#aO"/><use transform="matrix(0.06172839506172839,0,0,0.06172839506172839,76.41975308641976,0)" xlink:href="#bl"/><use transform="matrix(0.06172839506172839,0,0,0.06172839506172839,83.76543209876544,0)" xlink:href="#bi"/><use transform="matrix(0.06172839506172839,0,0,0.06172839506172839,98.58024691358025,0)" xlink:href="#bm"/><use transform="matrix(0.06172839506172839,0,0,0.06172839506172839,113.39506172839506,0)" xlink:href="#bn"/><use transform="matrix(0.06172839506172839,0,0,0.06172839506172839,119.5679012345679,0)" xlink:href="#bo"/></g><g id="z"><use transform="matrix(0.06172839506172839,0,0,0.06172839506172839,0,0)" xlink:href="#aN"/><use transform="matrix(0.06172839506172839,0,0,0.06172839506172839,12.345679012345679,0)" xlink:href="#aL"/><use transform="matrix(0.06172839506172839,0,0,0.06172839506172839,24.691358024691358,0)" xlink:href="#aX"/></g><g id="A"><use transform="matrix(0.06172839506172839,0,0,0.06172839506172839,0,0)" xlink:href="#aV"/><use transform="matrix(0.06172839506172839,0,0,0.06172839506172839,4.876543209876543,0)" xlink:href="#aY"/><use transform="matrix(0.06172839506172839,0,0,0.06172839506172839,17.22222222222222,0)" xlink:href="#aP"/><use transform="matrix(0.06172839506172839,0,0,0.06172839506172839,28.333333333333332,0)" xlink:href="#aT"/><use transform="matrix(0.06172839506172839,0,0,0.06172839506172839,40.67901234567901,0)" xlink:href="#aX"/><use transform="matrix(0.06172839506172839,0,0,0.06172839506172839,46.851851851851855,0)" xlink:href="#aW"/><use transform="matrix(0.06172839506172839,0,0,0.06172839506172839,51.7283950617284,0)" xlink:href="#aY"/><use transform="matrix(0.06172839506172839,0,0,0.06172839506172839,64.07407407407408,0)" xlink:href="#aO"/></g><g id="B"><use transform="matrix(0.06172839506172839,0,0,0.06172839506172839,0,0)" xlink:href="#aL"/><use transform="matrix(0.06172839506172839,0,0,0.06172839506172839,12.345679012345679,0)" xlink:href="#aT"/><use transform="matrix(0.06172839506172839,0,0,0.06172839506172839,24.691358024691358,0)" xlink:href="#aP"/><use transform="matrix(0.06172839506172839,0,0,0.06172839506172839,35.80246913580247,0)" xlink:href="#be"/></g><g id="C"><use transform="matrix(0.06172839506172839,0,0,0.06172839506172839,0,0)" xlink:href="#bf"/><use transform="matrix(0.06172839506172839,0,0,0.06172839506172839,12.345679012345679,0)" xlink:href="#bg"/><use transform="matrix(0.06172839506172839,0,0,0.06172839506172839,23.45679012345679,0)" xlink:href="#aL"/><use transform="matrix(0.06172839506172839,0,0,0.06172839506172839,35.80246913580247,0)" xlink:href="#aM"/></g><g id="D"><use transform="matrix(0.06172839506172839,0,0,0.06172839506172839,0,0)" xlink:href="#bg"/><use transform="matrix(0.06172839506172839,0,0,0.06172839506172839,11.11111111111111,0)" xlink:href="#be"/><use transform="matrix(0.06172839506172839,0,0,0.06172839506172839,23.45679012345679,0)" xlink:href="#aY"/><use transform="matrix(0.06172839506172839,0,0,0.06172839506172839,35.80246913580247,0)" xlink:href="#aR"/></g><g id="E"><use transform="matrix(0.06172839506172839,0,0,0.06172839506172839,0,0)" xlink:href="#be"/><use transform="matrix(0.06172839506172839,0,0,0.06172839506172839,12.345679012345679,0)" xlink:href="#aW"/><use transform="matrix(0.06172839506172839,0,0,0.06172839506172839,17.22222222222222,0)" xlink:href="#bg"/></g><g id="F"><use transform="matrix(0.06172839506172839,0,0,0.06172839506172839,0,0)" xlink:href="#aY"/><use transform="matrix(0.06172839506172839,0,0,0.06172839506172839,12.345679012345679,0)" xlink:href="#aX"/><use transform="matrix(0.06172839506172839,0,0,0.06172839506172839,18.51851851851852,0)" xlink:href="#be"/><use transform="matrix(0.06172839506172839,0,0,0.06172839506172839,30.864197530864196,0)" xlink:href="#aL"/><use transform="matrix(0.06172839506172839,0,0,0.06172839506172839,43.20987654320987,0)" xlink:href="#aM"/></g><g id="G"><use transform="matrix(0.06172839506172839,0,0,0.06172839506172839,0,0)" xlink:href="#bg"/><use transform="matrix(0.06172839506172839,0,0,0.06172839506172839,11.11111111111111,0)" xlink:href="#aP"/><use transform="matrix(0.06172839506172839,0,0,0.06172839506172839,22.22222222222222,0)" xlink:href="#be"/><use transform="matrix(0.06172839506172839,0,0,0.06172839506172839,34.5679012345679,0)" xlink:href="#aL"/><use transform="matrix(0.06172839506172839,0,0,0.06172839506172839,46.913580246913575,0)" xlink:href="#ba"/><use transform="matrix(0.06172839506172839,0,0,0.06172839506172839,59.25925925925925,0)" xlink:href="#bf"/><use transform="matrix(0.06172839506172839,0,0,0.06172839506172839,71.60493827160494,0)" xlink:href="#aV"/><use transform="matrix(0.06172839506172839,0,0,0.06172839506172839,76.48148148148148,0)" xlink:href="#aL"/><use transform="matrix(0.06172839506172839,0,0,0.06172839506172839,88.82716049382717,0)" xlink:href="#bc"/></g><g id="H"><use transform="matrix(0.06172839506172839,0,0,0.06172839506172839,0,0)" xlink:href="#bg"/><use transform="matrix(0.06172839506172839,0,0,0.06172839506172839,11.11111111111111,0)" xlink:href="#aL"/><use transform="matrix(0.06172839506172839,0,0,0.06172839506172839,23.45679012345679,0)" xlink:href="#aL"/></g><g id="I"><use transform="matrix(0.06172839506172839,0,0,0.06172839506172839,0,0)" xlink:href="#aX"/><use transform="matrix(0.06172839506172839,0,0,0.06172839506172839,6.172839506172839,0)" xlink:href="#be"/><use transform="matrix(0.06172839506172839,0,0,0.06172839506172839,18.51851851851852,0)" xlink:href="#aL"/></g><g id="J"><use transform="matrix(0.06172839506172839,0,0,0.06172839506172839,0,0)" xlink:href="#bf"/><use transform="matrix(0.06172839506172839,0,0,0.06172839506172839,12.345679012345679,0)" xlink:href="#bg"/><use transform="matrix(0.06172839506172839,0,0,0.06172839506172839,23.45679012345679,0)" xlink:href="#aL"/><use transform="matrix(0.06172839506172839,0,0,0.06172839506172839,35.80246913580247,0)" xlink:href="#aM"/></g><g id="K"><use transform="matrix(0.06172839506172839,0,0,0.06172839506172839,0,0)" xlink:href="#bg"/><use transform="matrix(0.06172839506172839,0,0,0.06172839506172839,11.11111111111111,0)" xlink:href="#aP"/><use transform="matrix(0.06172839506172839,0,0,0.06172839506172839,22.22222222222222,0)" xlink:href="#be"/><use transform="matrix(0.06172839506172839,0,0,0.06172839506172839,34.5679012345679,0)" xlink:href="#aL"/><use transform="matrix(0.06172839506172839,0,0,0.06172839506172839,46.913580246913575,0)" xlink:href="#ba"/><use transform="matrix(0.06172839506172839,0,0,0.06172839506172839,59.25925925925925,0)" xlink:href="#bf"/><use transform="matrix(0.06172839506172839,0,0,0.06172839506172839,71.60493827160494,0)" xlink:href="#aV"/><use transform="matrix(0.06172839506172839,0,0,0.06172839506172839,76.48148148148148,0)" xlink:href="#aL"/></g><g id="L"><use transform="matrix(0.06172839506172839,0,0,0.06172839506172839,0,0)" xlink:href="#aR"/><use transform="matrix(0.06172839506172839,0,0,0.06172839506172839,15.987654320987653,0)" xlink:href="#be"/><use transform="matrix(0.06172839506172839,0,0,0.06172839506172839,28.333333333333332,0)" xlink:href="#aL"/><use transform="matrix(0.06172839506172839,0,0,0.06172839506172839,40.67901234567901,0)" xlink:href="#aO"/></g><g id="M"><use transform="matrix(0.06172839506172839,0,0,0.06172839506172839,0,0)" xlink:href="#aX"/><use transform="matrix(0.06172839506172839,0,0,0.06172839506172839,6.172839506172839,0)" xlink:href="#be"/><use transform="matrix(0.06172839506172839,0,0,0.06172839506172839,18.51851851851852,0)" xlink:href="#aL"/><use transform="matrix(0.06172839506172839,0,0,0.06172839506172839,30.864197530864196,0)" xlink:href="#aQ"/></g><g id="N"><use transform="matrix(0.06172839506172839,0,0,0.06172839506172839,0,0)" xlink:href="#aT"/><use transform="matrix(0.06172839506172839,0,0,0.06172839506172839,12.345679012345679,0)" xlink:href="#aM"/><use transform="matrix(0.06172839506172839,0,0,0.06172839506172839,19.691358024691358,0)" xlink:href="#aL"/></g><g id="O"><use transform="matrix(0.06172839506172839,0,0,0.06172839506172839,0,0)" xlink:href="#aT"/><use transform="matrix(0.06172839506172839,0,0,0.06172839506172839,12.345679012345679,0)" xlink:href="#bd"/><use transform="matrix(0.06172839506172839,0,0,0.06172839506172839,23.45679012345679,0)" xlink:href="#aT"/><use transform="matrix(0.06172839506172839,0,0,0.06172839506172839,35.80246913580247,0)" xlink:href="#aV"/><use transform="matrix(0.06172839506172839,0,0,0.06172839506172839,40.67901234567901,0)" xlink:href="#aT"/><use transform="matrix(0.06172839506172839,0,0,0.06172839506172839,53.02469135802469,0)" xlink:href="#aS"/><use transform="matrix(0.06172839506172839,0,0,0.06172839506172839,65.37037037037037,0)" xlink:href="#aV"/><use transform="matrix(0.06172839506172839,0,0,0.06172839506172839,70.24691358024691,0)" xlink:href="#aL"/></g><g id="P"><use transform="matrix(0.06172839506172839,0,0,0.06172839506172839,0,0)" xlink:href="#aP"/><use transform="matrix(0.06172839506172839,0,0,0.06172839506172839,11.11111111111111,0)" xlink:href="#bf"/><use transform="matrix(0.06172839506172839,0,0,0.06172839506172839,23.45679012345679,0)" xlink:href="#aM"/><use transform="matrix(0.06172839506172839,0,0,0.06172839506172839,30.80246913580247,0)" xlink:href="#aL"/><use transform="matrix(0.06172839506172839,0,0,0.06172839506172839,43.148148148148145,0)" xlink:href="#aO"/><use transform="matrix(0.06172839506172839,0,0,0.06172839506172839,55.49382716049382,0)" xlink:href="#aP"/><use transform="matrix(0.06172839506172839,0,0,0.06172839506172839,66.60493827160494,0)" xlink:href="#aP"/><use transform="matrix(0.06172839506172839,0,0,0.06172839506172839,77.71604938271605,0)" xlink:href="#aQ"/><use transform="matrix(0.06172839506172839,0,0,0.06172839506172839,88.82716049382717,0)" xlink:href="#bl"/><use transform="matrix(0.06172839506172839,0,0,0.06172839506172839,96.17283950617285,0)" xlink:href="#bi"/><use transform="matrix(0.06172839506172839,0,0,0.06172839506172839,110.98765432098766,0)" xlink:href="#bm"/><use transform="matrix(0.06172839506172839,0,0,0.06172839506172839,125.80246913580247,0)" xlink:href="#bn"/><use transform="matrix(0.06172839506172839,0,0,0.06172839506172839,131.97530864197532,0)" xlink:href="#bo"/></g><g id="Q"><use transform="matrix(0.06172839506172839,0,0,0.06172839506172839,0,0)" xlink:href="#aP"/><use transform="matrix(0.06172839506172839,0,0,0.06172839506172839,11.11111111111111,0)" xlink:href="#aY"/><use transform="matrix(0.06172839506172839,0,0,0.06172839506172839,23.45679012345679,0)" xlink:href="#aO"/><use transform="matrix(0.06172839506172839,0,0,0.06172839506172839,35.80246913580247,0)" xlink:href="#bd"/><use transform="matrix(0.06172839506172839,0,0,0.06172839506172839,46.91358024691358,0)" xlink:href="#aL"/><use transform="matrix(0.06172839506172839,0,0,0.06172839506172839,59.25925925925926,0)" xlink:href="#aM"/><use transform="matrix(0.06172839506172839,0,0,0.06172839506172839,66.60493827160494,0)" xlink:href="#aX"/></g><g id="R"><use transform="matrix(0.06172839506172839,0,0,0.06172839506172839,0,0)" xlink:href="#aP"/><use transform="matrix(0.06172839506172839,0,0,0.06172839506172839,11.11111111111111,0)" xlink:href="#bf"/><use transform="matrix(0.06172839506172839,0,0,0.06172839506172839,23.45679012345679,0)" xlink:href="#aM"/><use transform="matrix(0.06172839506172839,0,0,0.06172839506172839,30.80246913580247,0)" xlink:href="#aM"/><use transform="matrix(0.06172839506172839,0,0,0.06172839506172839,38.148148148148145,0)" xlink:href="#aL"/><use transform="matrix(0.06172839506172839,0,0,0.06172839506172839,50.49382716049382,0)" xlink:href="#aO"/><use transform="matrix(0.06172839506172839,0,0,0.06172839506172839,62.8395061728395,0)" xlink:href="#aP"/><use transform="matrix(0.06172839506172839,0,0,0.06172839506172839,73.9506172839506,0)" xlink:href="#aW"/><use transform="matrix(0.06172839506172839,0,0,0.06172839506172839,78.82716049382715,0)" xlink:href="#aL"/><use transform="matrix(0.06172839506172839,0,0,0.06172839506172839,91.17283950617283,0)" xlink:href="#bg"/></g><g id="T"><use transform="matrix(0.06172839506172839,0,0,0.06172839506172839,0,0)" xlink:href="#aN"/><use transform="matrix(0.06172839506172839,0,0,0.06172839506172839,12.345679012345679,0)" xlink:href="#aL"/><use transform="matrix(0.06172839506172839,0,0,0.06172839506172839,24.691358024691358,0)" xlink:href="#aX"/></g><g id="U"><use transform="matrix(0.06172839506172839,0,0,0.06172839506172839,0,0)" xlink:href="#ba"/><use transform="matrix(0.06172839506172839,0,0,0.06172839506172839,12.345679012345679,0)" xlink:href="#aT"/><use transform="matrix(0.06172839506172839,0,0,0.06172839506172839,24.691358024691358,0)" xlink:href="#aX"/><use transform="matrix(0.06172839506172839,0,0,0.06172839506172839,30.864197530864196,0)" xlink:href="#aT"/></g><g id="V"><use transform="matrix(0.06172839506172839,0,0,0.06172839506172839,0,0)" xlink:href="#aZ"/><use transform="matrix(0.06172839506172839,0,0,0.06172839506172839,6.172839506172839,0)" xlink:href="#aM"/><use transform="matrix(0.06172839506172839,0,0,0.06172839506172839,13.518518518518519,0)" xlink:href="#aY"/><use transform="matrix(0.06172839506172839,0,0,0.06172839506172839,25.864197530864196,0)" xlink:href="#aK"/></g><path fill="#333" d="M33 0v-38h34V0H33" id="bp"/><g id="W"><use transform="matrix(0.06172839506172839,0,0,0.06172839506172839,0,0)" xlink:href="#bi"/><use transform="matrix(0.06172839506172839,0,0,0.06172839506172839,14.814814814814813,0)" xlink:href="#bm"/><use transform="matrix(0.06172839506172839,0,0,0.06172839506172839,29.629629629629626,0)" xlink:href="#bn"/><use transform="matrix(0.06172839506172839,0,0,0.06172839506172839,35.80246913580247,0)" xlink:href="#bp"/></g><g id="X"><use transform="matrix(0.06172839506172839,0,0,0.06172839506172839,0,0)" xlink:href="#aQ"/><use transform="matrix(0.06172839506172839,0,0,0.06172839506172839,11.11111111111111,0)" xlink:href="#aY"/><use transform="matrix(0.06172839506172839,0,0,0.06172839506172839,23.45679012345679,0)" xlink:href="#bf"/></g><g id="Y"><use transform="matrix(0.06172839506172839,0,0,0.06172839506172839,0,0)" xlink:href="#aU"/><use transform="matrix(0.06172839506172839,0,0,0.06172839506172839,12.345679012345679,0)" xlink:href="#aL"/><use transform="matrix(0.06172839506172839,0,0,0.06172839506172839,24.691358024691358,0)" xlink:href="#aY"/><use transform="matrix(0.06172839506172839,0,0,0.06172839506172839,37.03703703703704,0)" xlink:href="#aU"/><use transform="matrix(0.06172839506172839,0,0,0.06172839506172839,49.382716049382715,0)" xlink:href="#aV"/><use transform="matrix(0.06172839506172839,0,0,0.06172839506172839,54.25925925925926,0)" xlink:href="#aL"/></g><g id="Z"><use transform="matrix(0.06172839506172839,0,0,0.06172839506172839,0,0)" xlink:href="#aR"/><use transform="matrix(0.06172839506172839,0,0,0.06172839506172839,15.987654320987653,0)" xlink:href="#aW"/><use transform="matrix(0.06172839506172839,0,0,0.06172839506172839,20.864197530864196,0)" xlink:href="#aV"/><use transform="matrix(0.06172839506172839,0,0,0.06172839506172839,25.74074074074074,0)" xlink:href="#aV"/></g><g id="aa"><use transform="matrix(0.06172839506172839,0,0,0.06172839506172839,0,0)" xlink:href="#aT"/><use transform="matrix(0.06172839506172839,0,0,0.06172839506172839,12.345679012345679,0)" xlink:href="#aO"/><use transform="matrix(0.06172839506172839,0,0,0.06172839506172839,24.691358024691358,0)" xlink:href="#bg"/><use transform="matrix(0.06172839506172839,0,0,0.06172839506172839,35.80246913580247,0)" xlink:href="#aR"/><use transform="matrix(0.06172839506172839,0,0,0.06172839506172839,51.79012345679012,0)" xlink:href="#aL"/><use transform="matrix(0.06172839506172839,0,0,0.06172839506172839,64.1358024691358,0)" xlink:href="#aM"/></g><g id="ab"><use transform="matrix(0.06172839506172839,0,0,0.06172839506172839,0,0)" xlink:href="#aQ"/><use transform="matrix(0.06172839506172839,0,0,0.06172839506172839,11.11111111111111,0)" xlink:href="#aY"/><use transform="matrix(0.06172839506172839,0,0,0.06172839506172839,23.45679012345679,0)" xlink:href="#bf"/><use transform="matrix(0.06172839506172839,0,0,0.06172839506172839,35.80246913580247,0)" xlink:href="#bp"/></g><g id="ac"><use transform="matrix(0.06172839506172839,0,0,0.06172839506172839,0,0)" xlink:href="#aZ"/><use transform="matrix(0.06172839506172839,0,0,0.06172839506172839,6.172839506172839,0)" xlink:href="#bf"/><use transform="matrix(0.06172839506172839,0,0,0.06172839506172839,18.51851851851852,0)" xlink:href="#aO"/><use transform="matrix(0.06172839506172839,0,0,0.06172839506172839,30.864197530864196,0)" xlink:href="#aP"/><use transform="matrix(0.06172839506172839,0,0,0.06172839506172839,41.9753086419753,0)" xlink:href="#aX"/><use transform="matrix(0.06172839506172839,0,0,0.06172839506172839,48.148148148148145,0)" xlink:href="#aW"/><use transform="matrix(0.06172839506172839,0,0,0.06172839506172839,53.02469135802469,0)" xlink:href="#aY"/><use transform="matrix(0.06172839506172839,0,0,0.06172839506172839,65.37037037037037,0)" xlink:href="#aO"/></g><g id="ad"><use transform="matrix(0.06172839506172839,0,0,0.06172839506172839,0,0)" xlink:href="#aT"/><use transform="matrix(0.06172839506172839,0,0,0.06172839506172839,12.345679012345679,0)" xlink:href="#aV"/><use transform="matrix(0.06172839506172839,0,0,0.06172839506172839,17.22222222222222,0)" xlink:href="#aV"/></g><g id="ae"><use transform="matrix(0.06172839506172839,0,0,0.06172839506172839,0,0)" xlink:href="#aM"/><use transform="matrix(0.06172839506172839,0,0,0.06172839506172839,7.345679012345679,0)" xlink:href="#aL"/><use transform="matrix(0.06172839506172839,0,0,0.06172839506172839,19.691358024691358,0)" xlink:href="#aU"/><use transform="matrix(0.06172839506172839,0,0,0.06172839506172839,32.03703703703704,0)" xlink:href="#aV"/><use transform="matrix(0.06172839506172839,0,0,0.06172839506172839,36.91358024691358,0)" xlink:href="#aQ"/></g><g id="af"><use transform="matrix(0.06172839506172839,0,0,0.06172839506172839,0,0)" xlink:href="#aX"/><use transform="matrix(0.06172839506172839,0,0,0.06172839506172839,6.172839506172839,0)" xlink:href="#be"/><use transform="matrix(0.06172839506172839,0,0,0.06172839506172839,18.51851851851852,0)" xlink:href="#aL"/></g><g id="ag"><use transform="matrix(0.06172839506172839,0,0,0.06172839506172839,0,0)" xlink:href="#aR"/><use transform="matrix(0.06172839506172839,0,0,0.06172839506172839,15.987654320987653,0)" xlink:href="#aW"/><use transform="matrix(0.06172839506172839,0,0,0.06172839506172839,20.864197530864196,0)" xlink:href="#aV"/><use transform="matrix(0.06172839506172839,0,0,0.06172839506172839,25.74074074074074,0)" xlink:href="#aV"/></g><g id="ah"><use transform="matrix(0.06172839506172839,0,0,0.06172839506172839,0,0)" xlink:href="#aU"/><use transform="matrix(0.06172839506172839,0,0,0.06172839506172839,12.345679012345679,0)" xlink:href="#bf"/><use transform="matrix(0.06172839506172839,0,0,0.06172839506172839,24.691358024691358,0)" xlink:href="#aX"/></g><g id="ai"><use transform="matrix(0.06172839506172839,0,0,0.06172839506172839,0,0)" xlink:href="#bg"/><use transform="matrix(0.06172839506172839,0,0,0.06172839506172839,11.11111111111111,0)" xlink:href="#aL"/><use transform="matrix(0.06172839506172839,0,0,0.06172839506172839,23.45679012345679,0)" xlink:href="#aM"/><use transform="matrix(0.06172839506172839,0,0,0.06172839506172839,30.80246913580247,0)" xlink:href="#aX"/><use transform="matrix(0.06172839506172839,0,0,0.06172839506172839,36.97530864197531,0)" xlink:href="#aW"/><use transform="matrix(0.06172839506172839,0,0,0.06172839506172839,41.851851851851855,0)" xlink:href="#aY"/><use transform="matrix(0.06172839506172839,0,0,0.06172839506172839,54.19753086419753,0)" xlink:href="#aO"/></g><g id="aj"><use transform="matrix(0.06172839506172839,0,0,0.06172839506172839,0,0)" xlink:href="#bd"/><use transform="matrix(0.06172839506172839,0,0,0.06172839506172839,11.11111111111111,0)" xlink:href="#aT"/><use transform="matrix(0.06172839506172839,0,0,0.06172839506172839,23.45679012345679,0)" xlink:href="#aV"/><use transform="matrix(0.06172839506172839,0,0,0.06172839506172839,28.333333333333336,0)" xlink:href="#bf"/><use transform="matrix(0.06172839506172839,0,0,0.06172839506172839,40.67901234567901,0)" xlink:href="#aL"/></g><g id="ak"><use transform="matrix(0.06172839506172839,0,0,0.06172839506172839,0,0)" xlink:href="#bg"/><use transform="matrix(0.06172839506172839,0,0,0.06172839506172839,11.11111111111111,0)" xlink:href="#aL"/><use transform="matrix(0.06172839506172839,0,0,0.06172839506172839,23.45679012345679,0)" xlink:href="#aL"/></g><g id="al"><use transform="matrix(0.06172839506172839,0,0,0.06172839506172839,0,0)" xlink:href="#aY"/><use transform="matrix(0.06172839506172839,0,0,0.06172839506172839,12.345679012345679,0)" xlink:href="#bf"/><use transform="matrix(0.06172839506172839,0,0,0.06172839506172839,24.691358024691358,0)" xlink:href="#aX"/><use transform="matrix(0.06172839506172839,0,0,0.06172839506172839,30.864197530864196,0)" xlink:href="#aU"/><use transform="matrix(0.06172839506172839,0,0,0.06172839506172839,43.20987654320987,0)" xlink:href="#bf"/><use transform="matrix(0.06172839506172839,0,0,0.06172839506172839,55.55555555555555,0)" xlink:href="#aX"/><use transform="matrix(0.06172839506172839,0,0,0.06172839506172839,61.72839506172839,0)" xlink:href="#bp"/></g><g id="am"><use transform="matrix(0.06172839506172839,0,0,0.06172839506172839,0,0)" xlink:href="#bf"/><use transform="matrix(0.06172839506172839,0,0,0.06172839506172839,12.345679012345679,0)" xlink:href="#bg"/><use transform="matrix(0.06172839506172839,0,0,0.06172839506172839,23.45679012345679,0)" xlink:href="#aL"/></g><g id="an"><use transform="matrix(0.06172839506172839,0,0,0.06172839506172839,0,0)" xlink:href="#aZ"/><use transform="matrix(0.06172839506172839,0,0,0.06172839506172839,6.172839506172839,0)" xlink:href="#bf"/><use transform="matrix(0.06172839506172839,0,0,0.06172839506172839,18.51851851851852,0)" xlink:href="#aO"/><use transform="matrix(0.06172839506172839,0,0,0.06172839506172839,30.864197530864196,0)" xlink:href="#aP"/><use transform="matrix(0.06172839506172839,0,0,0.06172839506172839,41.9753086419753,0)" xlink:href="#aX"/><use transform="matrix(0.06172839506172839,0,0,0.06172839506172839,48.148148148148145,0)" xlink:href="#aW"/><use transform="matrix(0.06172839506172839,0,0,0.06172839506172839,53.02469135802469,0)" xlink:href="#aY"/><use transform="matrix(0.06172839506172839,0,0,0.06172839506172839,65.37037037037037,0)" xlink:href="#aO"/><use transform="matrix(0.06172839506172839,0,0,0.06172839506172839,77.71604938271605,0)" xlink:href="#bg"/></g><g id="ao"><use transform="matrix(0.06172839506172839,0,0,0.06172839506172839,0,0)" xlink:href="#aV"/><use transform="matrix(0.06172839506172839,0,0,0.06172839506172839,4.876543209876543,0)" xlink:href="#aY"/><use transform="matrix(0.06172839506172839,0,0,0.06172839506172839,17.22222222222222,0)" xlink:href="#aP"/><use transform="matrix(0.06172839506172839,0,0,0.06172839506172839,28.333333333333332,0)" xlink:href="#aT"/><use transform="matrix(0.06172839506172839,0,0,0.06172839506172839,40.67901234567901,0)" xlink:href="#aX"/><use transform="matrix(0.06172839506172839,0,0,0.06172839506172839,46.851851851851855,0)" xlink:href="#aW"/><use transform="matrix(0.06172839506172839,0,0,0.06172839506172839,51.7283950617284,0)" xlink:href="#aY"/><use transform="matrix(0.06172839506172839,0,0,0.06172839506172839,64.07407407407408,0)" xlink:href="#aO"/></g><g id="ap"><use transform="matrix(0.06172839506172839,0,0,0.06172839506172839,0,0)" xlink:href="#bi"/><use transform="matrix(0.06172839506172839,0,0,0.06172839506172839,14.814814814814813,0)" xlink:href="#bm"/><use transform="matrix(0.06172839506172839,0,0,0.06172839506172839,29.629629629629626,0)" xlink:href="#bn"/></g><g id="aq"><use transform="matrix(0.06172839506172839,0,0,0.06172839506172839,0,0)" xlink:href="#bg"/><use transform="matrix(0.06172839506172839,0,0,0.06172839506172839,11.11111111111111,0)" xlink:href="#aU"/><use transform="matrix(0.06172839506172839,0,0,0.06172839506172839,23.45679012345679,0)" xlink:href="#aP"/><use transform="matrix(0.06172839506172839,0,0,0.06172839506172839,34.5679012345679,0)" xlink:href="#aW"/><use transform="matrix(0.06172839506172839,0,0,0.06172839506172839,39.44444444444444,0)" xlink:href="#aZ"/><use transform="matrix(0.06172839506172839,0,0,0.06172839506172839,45.617283950617285,0)" xlink:href="#aT"/><use transform="matrix(0.06172839506172839,0,0,0.06172839506172839,57.96296296296296,0)" xlink:href="#aQ"/></g><g id="ar"><use transform="matrix(0.06172839506172839,0,0,0.06172839506172839,0,0)" xlink:href="#aT"/><use transform="matrix(0.06172839506172839,0,0,0.06172839506172839,12.345679012345679,0)" xlink:href="#aO"/><use transform="matrix(0.06172839506172839,0,0,0.06172839506172839,24.691358024691358,0)" xlink:href="#ba"/></g><g id="as"><use transform="matrix(0.06172839506172839,0,0,0.06172839506172839,0,0)" xlink:href="#aT"/><use transform="matrix(0.06172839506172839,0,0,0.06172839506172839,12.345679012345679,0)" xlink:href="#aO"/><use transform="matrix(0.06172839506172839,0,0,0.06172839506172839,24.691358024691358,0)" xlink:href="#aQ"/></g><g id="at"><use transform="matrix(0.06172839506172839,0,0,0.06172839506172839,0,0)" xlink:href="#aX"/><use transform="matrix(0.06172839506172839,0,0,0.06172839506172839,6.172839506172839,0)" xlink:href="#be"/><use transform="matrix(0.06172839506172839,0,0,0.06172839506172839,18.51851851851852,0)" xlink:href="#aW"/><use transform="matrix(0.06172839506172839,0,0,0.06172839506172839,23.395061728395063,0)" xlink:href="#bg"/></g><g id="au"><use transform="matrix(0.06172839506172839,0,0,0.06172839506172839,0,0)" xlink:href="#aZ"/><use transform="matrix(0.06172839506172839,0,0,0.06172839506172839,6.172839506172839,0)" xlink:href="#aL"/><use transform="matrix(0.06172839506172839,0,0,0.06172839506172839,18.51851851851852,0)" xlink:href="#aL"/><use transform="matrix(0.06172839506172839,0,0,0.06172839506172839,30.864197530864196,0)" xlink:href="#ba"/><use transform="matrix(0.06172839506172839,0,0,0.06172839506172839,43.20987654320987,0)" xlink:href="#aS"/><use transform="matrix(0.06172839506172839,0,0,0.06172839506172839,55.55555555555555,0)" xlink:href="#aT"/><use transform="matrix(0.06172839506172839,0,0,0.06172839506172839,67.90123456790123,0)" xlink:href="#aP"/><use transform="matrix(0.06172839506172839,0,0,0.06172839506172839,79.01234567901234,0)" xlink:href="#bb"/></g><g id="av"><use transform="matrix(0.06172839506172839,0,0,0.06172839506172839,0,0)" xlink:href="#aZ"/><use transform="matrix(0.06172839506172839,0,0,0.06172839506172839,6.172839506172839,0)" xlink:href="#aL"/><use transform="matrix(0.06172839506172839,0,0,0.06172839506172839,18.51851851851852,0)" xlink:href="#aL"/><use transform="matrix(0.06172839506172839,0,0,0.06172839506172839,30.864197530864196,0)" xlink:href="#ba"/><use transform="matrix(0.06172839506172839,0,0,0.06172839506172839,43.20987654320987,0)" xlink:href="#aS"/><use transform="matrix(0.06172839506172839,0,0,0.06172839506172839,55.55555555555555,0)" xlink:href="#aT"/><use transform="matrix(0.06172839506172839,0,0,0.06172839506172839,67.90123456790123,0)" xlink:href="#aP"/><use transform="matrix(0.06172839506172839,0,0,0.06172839506172839,79.01234567901234,0)" xlink:href="#bb"/></g><g id="aw"><use transform="matrix(0.06172839506172839,0,0,0.06172839506172839,0,0)" xlink:href="#aT"/><use transform="matrix(0.06172839506172839,0,0,0.06172839506172839,12.345679012345679,0)" xlink:href="#aO"/><use transform="matrix(0.06172839506172839,0,0,0.06172839506172839,24.691358024691358,0)" xlink:href="#ba"/></g><g id="ax"><use transform="matrix(0.06172839506172839,0,0,0.06172839506172839,0,0)" xlink:href="#aT"/><use transform="matrix(0.06172839506172839,0,0,0.06172839506172839,12.345679012345679,0)" xlink:href="#aU"/><use transform="matrix(0.06172839506172839,0,0,0.06172839506172839,24.691358024691358,0)" xlink:href="#aU"/><use transform="matrix(0.06172839506172839,0,0,0.06172839506172839,37.03703703703704,0)" xlink:href="#aL"/><use transform="matrix(0.06172839506172839,0,0,0.06172839506172839,49.382716049382715,0)" xlink:href="#aT"/><use transform="matrix(0.06172839506172839,0,0,0.06172839506172839,61.72839506172839,0)" xlink:href="#aM"/></g><g id="ay"><use transform="matrix(0.06172839506172839,0,0,0.06172839506172839,0,0)" xlink:href="#aW"/><use transform="matrix(0.06172839506172839,0,0,0.06172839506172839,4.876543209876543,0)" xlink:href="#aO"/></g><g id="az"><use transform="matrix(0.06172839506172839,0,0,0.06172839506172839,0,0)" xlink:href="#aX"/><use transform="matrix(0.06172839506172839,0,0,0.06172839506172839,6.172839506172839,0)" xlink:href="#be"/><use transform="matrix(0.06172839506172839,0,0,0.06172839506172839,18.51851851851852,0)" xlink:href="#aL"/><use transform="matrix(0.06172839506172839,0,0,0.06172839506172839,30.864197530864196,0)" xlink:href="#aW"/><use transform="matrix(0.06172839506172839,0,0,0.06172839506172839,35.74074074074074,0)" xlink:href="#aM"/></g><g id="aA"><use transform="matrix(0.06172839506172839,0,0,0.06172839506172839,0,0)" xlink:href="#aU"/><use transform="matrix(0.06172839506172839,0,0,0.06172839506172839,12.345679012345679,0)" xlink:href="#aM"/><use transform="matrix(0.06172839506172839,0,0,0.06172839506172839,19.691358024691358,0)" xlink:href="#aY"/><use transform="matrix(0.06172839506172839,0,0,0.06172839506172839,32.03703703703704,0)" xlink:href="#aZ"/><use transform="matrix(0.06172839506172839,0,0,0.06172839506172839,38.20987654320988,0)" xlink:href="#aW"/><use transform="matrix(0.06172839506172839,0,0,0.06172839506172839,43.086419753086425,0)" xlink:href="#aV"/><use transform="matrix(0.06172839506172839,0,0,0.06172839506172839,47.96296296296297,0)" xlink:href="#aL"/></g><g id="aB"><use transform="matrix(0.06172839506172839,0,0,0.06172839506172839,0,0)" xlink:href="#aN"/><use transform="matrix(0.06172839506172839,0,0,0.06172839506172839,12.345679012345679,0)" xlink:href="#aL"/><use transform="matrix(0.06172839506172839,0,0,0.06172839506172839,24.691358024691358,0)" xlink:href="#aX"/><use transform="matrix(0.06172839506172839,0,0,0.06172839506172839,30.864197530864196,0)" xlink:href="#aX"/><use transform="matrix(0.06172839506172839,0,0,0.06172839506172839,37.03703703703704,0)" xlink:href="#aW"/><use transform="matrix(0.06172839506172839,0,0,0.06172839506172839,41.91358024691358,0)" xlink:href="#aO"/><use transform="matrix(0.06172839506172839,0,0,0.06172839506172839,54.25925925925926,0)" xlink:href="#aN"/></g><g id="aC"><use transform="matrix(0.06172839506172839,0,0,0.06172839506172839,0,0)" xlink:href="#ba"/><use transform="matrix(0.06172839506172839,0,0,0.06172839506172839,12.345679012345679,0)" xlink:href="#aT"/><use transform="matrix(0.06172839506172839,0,0,0.06172839506172839,24.691358024691358,0)" xlink:href="#aX"/><use transform="matrix(0.06172839506172839,0,0,0.06172839506172839,30.864197530864196,0)" xlink:href="#aT"/><use transform="matrix(0.06172839506172839,0,0,0.06172839506172839,43.20987654320987,0)" xlink:href="#aS"/><use transform="matrix(0.06172839506172839,0,0,0.06172839506172839,55.55555555555555,0)" xlink:href="#aT"/><use transform="matrix(0.06172839506172839,0,0,0.06172839506172839,67.90123456790123,0)" xlink:href="#bg"/><use transform="matrix(0.06172839506172839,0,0,0.06172839506172839,79.01234567901234,0)" xlink:href="#aL"/></g><g id="aD"><use transform="matrix(0.06172839506172839,0,0,0.06172839506172839,0,0)" xlink:href="#aW"/><use transform="matrix(0.06172839506172839,0,0,0.06172839506172839,4.876543209876543,0)" xlink:href="#aX"/></g><g id="aE"><use transform="matrix(0.06172839506172839,0,0,0.06172839506172839,0,0)" xlink:href="#aU"/><use transform="matrix(0.06172839506172839,0,0,0.06172839506172839,12.345679012345679,0)" xlink:href="#aY"/><use transform="matrix(0.06172839506172839,0,0,0.06172839506172839,24.691358024691358,0)" xlink:href="#bg"/><use transform="matrix(0.06172839506172839,0,0,0.06172839506172839,35.80246913580247,0)" xlink:href="#aX"/></g><g id="aF"><use transform="matrix(0.06172839506172839,0,0,0.06172839506172839,0,0)" xlink:href="#aM"/><use transform="matrix(0.06172839506172839,0,0,0.06172839506172839,7.345679012345679,0)" xlink:href="#aL"/><use transform="matrix(0.06172839506172839,0,0,0.06172839506172839,19.691358024691358,0)" xlink:href="#bk"/><use transform="matrix(0.06172839506172839,0,0,0.06172839506172839,32.03703703703704,0)" xlink:href="#bf"/><use transform="matrix(0.06172839506172839,0,0,0.06172839506172839,44.382716049382715,0)" xlink:href="#aL"/><use transform="matrix(0.06172839506172839,0,0,0.06172839506172839,56.72839506172839,0)" xlink:href="#bg"/><use transform="matrix(0.06172839506172839,0,0,0.06172839506172839,67.8395061728395,0)" xlink:href="#aX"/></g><g id="aG"><use transform="matrix(0.06172839506172839,0,0,0.06172839506172839,0,0)" xlink:href="#bg"/><use transform="matrix(0.06172839506172839,0,0,0.06172839506172839,11.11111111111111,0)" xlink:href="#aT"/><use transform="matrix(0.06172839506172839,0,0,0.06172839506172839,23.45679012345679,0)" xlink:href="#bd"/><use transform="matrix(0.06172839506172839,0,0,0.06172839506172839,34.5679012345679,0)" xlink:href="#aL"/></g><g id="aH"><use transform="matrix(0.06172839506172839,0,0,0.06172839506172839,0,0)" xlink:href="#ba"/><use transform="matrix(0.06172839506172839,0,0,0.06172839506172839,12.345679012345679,0)" xlink:href="#aT"/><use transform="matrix(0.06172839506172839,0,0,0.06172839506172839,24.691358024691358,0)" xlink:href="#aX"/><use transform="matrix(0.06172839506172839,0,0,0.06172839506172839,30.864197530864196,0)" xlink:href="#aT"/></g><g id="aI"><use transform="matrix(0.06172839506172839,0,0,0.06172839506172839,0,0)" xlink:href="#ba"/><use transform="matrix(0.06172839506172839,0,0,0.06172839506172839,12.345679012345679,0)" xlink:href="#aT"/><use transform="matrix(0.06172839506172839,0,0,0.06172839506172839,24.691358024691358,0)" xlink:href="#aX"/><use transform="matrix(0.06172839506172839,0,0,0.06172839506172839,30.864197530864196,0)" xlink:href="#aT"/><use transform="matrix(0.06172839506172839,0,0,0.06172839506172839,43.20987654320987,0)" xlink:href="#aS"/><use transform="matrix(0.06172839506172839,0,0,0.06172839506172839,55.55555555555555,0)" xlink:href="#aT"/><use transform="matrix(0.06172839506172839,0,0,0.06172839506172839,67.90123456790123,0)" xlink:href="#bg"/><use transform="matrix(0.06172839506172839,0,0,0.06172839506172839,79.01234567901234,0)" xlink:href="#aL"/></g></defs></g></svg>